<?xml version="1.0" encoding="UTF-8"?>
<svg width="19px" height="19px" viewBox="0 0 19 19" version="1.1" xmlns="http://www.w3.org/2000/svg" xmlns:xlink="http://www.w3.org/1999/xlink">
    <title>001-twitterSVG</title>
    <defs>
        <filter id="filter-1">
            <feColorMatrix in="SourceGraphic" type="matrix" values="0 0 0 0 1.000000 0 0 0 0 1.000000 0 0 0 0 1.000000 0 0 0 1.000000 0"></feColorMatrix>
        </filter>
        <filter id="filter-2">
            <feColorMatrix in="SourceGraphic" type="matrix" values="0 0 0 0 0.022376 0 0 0 0 0.476641 0 0 0 0 0.754189 0 0 0 1.000000 0"></feColorMatrix>
        </filter>
    </defs>
    <g id="Symbols" stroke="none" stroke-width="1" fill="none" fill-rule="evenodd">
        <g id="FOOTER" transform="translate(-237.000000, -348.000000)">
            <g id="Group-17" transform="translate(167.000000, 19.000000)">
                <g id="Group-15" transform="translate(0.000000, 306.000000)" filter="url(#filter-1)">
                    <g transform="translate(0.000000, 23.000000)">
                        <g id="001-twitter" transform="translate(70.000000, 0.000000)" filter="url(#filter-2)">
                            <g id="Group-14">
                                <path d="M14.8292683,6.47421987 C14.1733753,6.50458801 14.1876944,6.50211061 14.1135534,6.50834406 L14.501998,5.39391293 C14.501998,5.39391293 13.2894909,5.84200296 12.9821081,5.92215889 C12.1748307,5.1932434 10.9748926,5.1610372 10.1170211,5.69072164 C9.41451161,6.12458657 9.03744274,6.86964513 9.16321193,7.74049173 C7.7959793,7.54989165 6.64401002,6.89881453 5.73451037,5.8012457 L5.44685614,5.45416974 L5.23191099,5.85071382 C4.96024639,6.35178828 4.87003625,6.92470737 4.97782702,7.46390184 C5.02205704,7.68510983 5.09723218,7.89608854 5.20136364,8.09364134 L4.95459831,7.99758208 L4.92532376,8.41178765 C4.89565147,8.83254633 5.0351033,9.32371118 5.29841512,9.72552974 C5.37255609,9.83869105 5.46801656,9.96296071 5.5890127,10.0855521 L5.46149342,10.0658928 L5.61709399,10.5405149 C5.82161806,11.1641009 6.24641716,11.6465549 6.7977014,11.9147536 C6.24713311,12.1494674 5.80236687,12.2992303 5.07129874,12.5408169 L4.40243902,12.7617052 L5.0202274,13.1010293 C5.25577611,13.2304136 6.08811189,13.6625204 6.91050385,13.7921445 C8.73857191,14.0801624 10.7967793,13.8456084 12.182388,12.5919633 C13.3494719,11.5360308 13.7324275,10.0340062 13.6528771,8.47092562 C13.6408649,8.23429382 13.7053803,8.00845068 13.8345702,7.83511249 C14.0933476,7.48803652 14.8276773,6.47653743 14.8292683,6.47421987 Z M13.3460512,7.46749806 C13.1315038,7.75527622 13.0240312,8.12281074 13.0432824,8.50225276 C13.1235488,10.0789191 12.6965222,11.3016366 11.7739763,12.1362812 C10.6963071,13.1113385 8.95805145,13.4940571 7.00508927,13.1862999 C6.65140822,13.1305983 6.28587416,13.0058492 5.983344,12.8812599 C6.59627979,12.6694021 7.06960464,12.4805601 7.83400437,12.1171013 L8.90109337,11.6097135 L7.72295202,11.533953 C7.15862154,11.497671 6.68871735,11.2229192 6.39986987,10.7768271 C6.55324303,10.7678765 6.70112722,10.7429426 6.848375,10.7017059 L7.97202431,10.3873156 L6.83898804,10.108568 C6.28841977,9.97311005 5.97459347,9.64217716 5.80825359,9.38836337 C5.6990309,9.22157829 5.62767419,9.05071751 5.58487608,8.89320272 C5.69847405,8.92381062 5.83092545,8.94562773 6.04451825,8.96688544 L7.0932311,9.07109614 L6.26232724,8.41993909 C5.66363098,7.95083112 5.423707,7.24605032 5.5995929,6.56852096 C7.46807256,8.51543893 9.66191334,8.36911242 9.88274524,8.42057842 C9.83413994,7.9462759 9.83286713,7.94515707 9.82013907,7.90000443 C9.53733741,6.89569779 10.1571145,6.38575265 10.4366546,6.2131337 C11.0205545,5.85263181 11.9473962,5.7982888 12.5893678,6.39222586 C12.7280242,6.52041141 12.9155245,6.57083852 13.0910126,6.52704446 C13.2485224,6.4877257 13.3777918,6.44608937 13.5043565,6.40077689 L13.2408856,7.15662411 L13.5772246,7.15686387 C13.5137434,7.24237419 13.4376137,7.34474681 13.3460512,7.46749806 Z" id="Shape" fill="#000000" fill-rule="nonzero"></path>
                                <circle id="Oval" stroke="#FFFFFF" cx="9.5" cy="9.5" r="9"></circle>
                            </g>
                        </g>
                    </g>
                </g>
            </g>
        </g>
    </g>
</svg>