<?xml version="1.0" encoding="UTF-8"?>
<svg width="19px" height="19px" viewBox="0 0 19 19" version="1.1" xmlns="http://www.w3.org/2000/svg" xmlns:xlink="http://www.w3.org/1999/xlink">
    <title>003-instagramSVG</title>
    <defs>
        <filter id="filter-1">
            <feColorMatrix in="SourceGraphic" type="matrix" values="0 0 0 0 1.000000 0 0 0 0 1.000000 0 0 0 0 1.000000 0 0 0 1.000000 0"></feColorMatrix>
        </filter>
        <filter id="filter-2">
            <feColorMatrix in="SourceGraphic" type="matrix" values="0 0 0 0 0.636869 0 0 0 0 0.063060 0 0 0 0 0.789459 0 0 0 1.000000 0"></feColorMatrix>
        </filter>
    </defs>
    <g id="Symbols" stroke="none" stroke-width="1" fill="none" fill-rule="evenodd">
        <g id="FOOTER" transform="translate(-202.000000, -348.000000)">
            <g id="Group-17" transform="translate(167.000000, 19.000000)">
                <g id="Group-15" transform="translate(0.000000, 306.000000)" filter="url(#filter-1)">
                    <g transform="translate(0.000000, 23.000000)">
                        <g id="003-instagram" transform="translate(35.000000, 0.000000)" filter="url(#filter-2)">
                            <g id="Group-12">
                                <path d="M12.0068203,4.63414634 L7.22488701,4.63414634 C5.6685631,4.63414634 4.40243902,5.90027042 4.40243902,7.45659433 L4.40243902,12.2386072 C4.40243902,13.7948515 5.6685631,15.0609756 7.22488701,15.0609756 L12.0068999,15.0609756 C13.5631442,15.0609756 14.8292683,13.7948515 14.8292683,12.2386072 L14.8292683,7.45659433 C14.8292683,5.90027042 13.5631442,4.63414634 12.0068203,4.63414634 Z M14.2180031,12.2386072 C14.2180031,13.4577965 13.2260892,14.4497104 12.0068203,14.4497104 L7.22488701,14.4497104 C6.00561811,14.4497104 5.01370425,13.4577965 5.01370425,12.2386072 L5.01370425,7.45659433 C5.01370425,6.23732543 6.00561811,5.24541157 7.22488701,5.24541157 L12.0068999,5.24541157 C13.2260892,5.24541157 14.2180031,6.23732543 14.2180031,7.45659433 L14.2180031,12.2386072 Z" id="Shape" fill="#000000" fill-rule="nonzero"></path>
                                <path d="M9.61585366,6.95121951 C8.01878065,6.95121951 6.7195122,8.25048797 6.7195122,9.84756098 C6.7195122,11.444634 8.01878065,12.7439024 9.61585366,12.7439024 C11.2129267,12.7439024 12.5121951,11.444634 12.5121951,9.84756098 C12.5121951,8.25048797 11.2129267,6.95121951 9.61585366,6.95121951 Z M9.61585366,12.1229173 C8.36127611,12.1229173 7.34049737,11.1022193 7.34049737,9.84756098 C7.34049737,8.59298343 8.36127611,7.57220469 9.61585366,7.57220469 C10.870512,7.57220469 11.8912099,8.59298343 11.8912099,9.84756098 C11.8912099,11.1022193 10.870512,12.1229173 9.61585366,12.1229173 Z" id="Shape" fill="#000000" fill-rule="nonzero"></path>
                                <path d="M12.6280105,6.02439024 C12.180808,6.02439024 11.8170732,6.38820169 11.8170732,6.83532757 C11.8170732,7.28253002 12.180808,7.64634146 12.6280105,7.64634146 C13.0752129,7.64634146 13.4390244,7.28253002 13.4390244,6.83532757 C13.4390244,6.38812512 13.0752129,6.02439024 12.6280105,6.02439024 Z M12.6280105,7.05785672 C12.5053361,7.05785672 12.4054813,6.95800193 12.4054813,6.83532757 C12.4054813,6.71257662 12.5053361,6.6127984 12.6280105,6.6127984 C12.7507614,6.6127984 12.8506162,6.71257662 12.8506162,6.83532757 C12.8506162,6.95800193 12.7507614,7.05785672 12.6280105,7.05785672 Z" id="Shape" fill="#000000" fill-rule="nonzero"></path>
                                <circle id="Oval-Copy-2" stroke="#FFFFFF" cx="9.5" cy="9.5" r="9"></circle>
                            </g>
                        </g>
                    </g>
                </g>
            </g>
        </g>
    </g>
</svg>