<?xml version="1.0" encoding="UTF-8"?>
<svg width="9px" height="7px" viewBox="0 0 9 7" version="1.1" xmlns="http://www.w3.org/2000/svg" xmlns:xlink="http://www.w3.org/1999/xlink">
    <title>envelope-solidSVG</title>
    <defs>
        <filter id="filter-1">
            <feColorMatrix in="SourceGraphic" type="matrix" values="0 0 0 0 1.000000 0 0 0 0 1.000000 0 0 0 0 1.000000 0 0 0 1.000000 0"></feColorMatrix>
        </filter>
    </defs>
    <g id="Symbols" stroke="none" stroke-width="1" fill="none" fill-rule="evenodd">
        <g id="envelope-solid" transform="translate(-168.000000, -183.000000)" filter="url(#filter-1)">
            <g transform="translate(168.000000, 183.000000)">
                <path d="M8.82949219,2.31145833 C8.89804688,2.25494792 9,2.3078125 9,2.39713542 L9,6.125 C9,6.60807292 8.62207031,7 8.15625,7 L0.84375,7 C0.377929688,7 0,6.60807292 0,6.125 L0,2.39895833 C0,2.3078125 0.100195313,2.25677083 0.170507812,2.31328125 C0.564257812,2.63046875 1.08632812,3.03333333 2.87929687,4.38411458 C3.25019531,4.66484375 3.87597656,5.25546875 4.5,5.25182292 C5.12753906,5.25729167 5.765625,4.65390625 6.12246094,4.38411458 C7.91542969,3.03333333 8.43574219,2.62864583 8.82949219,2.31145833 Z M4.5,4.66666667 C4.9078125,4.67395833 5.49492188,4.134375 5.79023438,3.91197917 C8.12285156,2.15651042 8.30039063,2.00338542 8.83828125,1.56588542 C8.94023438,1.48385417 9,1.35625 9,1.22135417 L9,0.875 C9,0.391927083 8.62207031,0 8.15625,0 L0.84375,0 C0.377929688,0 0,0.391927083 0,0.875 L0,1.22135417 C0,1.35625 0.059765625,1.48203125 0.16171875,1.56588542 C0.699609375,2.0015625 0.877148438,2.15651042 3.20976563,3.91197917 C3.50507813,4.134375 4.0921875,4.67395833 4.5,4.66666667 Z" id="Shape" fill="#E35457" fill-rule="nonzero"></path>
            </g>
        </g>
    </g>
</svg>