<?xml version="1.0" encoding="UTF-8"?>
<svg width="19px" height="19px" viewBox="0 0 19 19" version="1.1" xmlns="http://www.w3.org/2000/svg" xmlns:xlink="http://www.w3.org/1999/xlink">
    <title>Group 13SVG</title>
    <defs>
        <filter id="filter-1">
            <feColorMatrix in="SourceGraphic" type="matrix" values="0 0 0 0 1.000000 0 0 0 0 1.000000 0 0 0 0 1.000000 0 0 0 1.000000 0"></feColorMatrix>
        </filter>
        <filter id="filter-2">
            <feColorMatrix in="SourceGraphic" type="matrix" values="0 0 0 0 1.000000 0 0 0 0 0.016654 0 0 0 0 0.016654 0 0 0 1.000000 0"></feColorMatrix>
        </filter>
        <filter id="filter-3">
            <feColorMatrix in="SourceGraphic" type="matrix" values="0 0 0 0 1.000000 0 0 0 0 1.000000 0 0 0 0 1.000000 0 0 0 1.000000 0"></feColorMatrix>
        </filter>
    </defs>
    <g id="Symbols" stroke="none" stroke-width="1" fill="none" fill-rule="evenodd">
        <g id="FOOTER" transform="translate(-272.000000, -348.000000)">
            <g id="Group-17" transform="translate(167.000000, 19.000000)">
                <g id="Group-15" transform="translate(0.000000, 306.000000)" filter="url(#filter-1)">
                    <g transform="translate(0.000000, 23.000000)">
                        <g id="Group-13" transform="translate(105.000000, 0.000000)" filter="url(#filter-2)">
                            <g>
                                <g filter="url(#filter-3)" id="004-youtube">
                                    <g transform="translate(4.030303, 5.757576)">
                                        <path d="M6.91407611,3.65834101 L4.55615546,2.35723096 C4.42057727,2.28241962 4.26032628,2.28521169 4.12743522,2.36462178 C3.99446274,2.44411398 3.91515152,2.58453925 3.91515152,2.74040311 L3.91515152,5.32028651 C3.91515152,5.47541128 3.99397415,5.6155902 4.12605094,5.69516452 C4.19502076,5.73671728 4.27148196,5.75757576 4.34810605,5.75757576 C4.41829728,5.75757576 4.48865137,5.74008419 4.55338691,5.70493681 L6.91138898,4.42624555 C7.0513643,4.35028452 7.13873693,4.20353599 7.13939116,4.04315554 C7.13995834,3.88277509 7.05364429,3.7353696 6.91407611,3.65834101 L6.91407611,3.65834101 Z M4.54060266,4.99574809 L4.54060266,3.06756938 L6.30287493,4.04003499 L4.54060266,4.99574809 Z" id="Shape" fill="#000000" fill-rule="nonzero"></path>
                                        <path d="M10.2873361,1.90245438 L10.2868617,1.89758275 C10.2780852,1.81192317 10.1907154,1.04999957 9.83000868,0.662461072 C9.41308488,0.206638482 8.94041835,0.151264249 8.71309882,0.124713837 C8.69428071,0.122521597 8.67704397,0.120491754 8.66162577,0.118380702 L8.64351927,0.116432049 C7.27343473,0.0141277498 5.20431293,0.000162387809 5.18359721,8.11939045e-05 L5.18177865,0 L5.17996009,8.11939045e-05 C5.15924437,0.000162387809 3.09012257,0.0141277498 1.70770349,0.116432049 L1.68943885,0.118380702 C1.67473226,0.120410566 1.65852339,0.12227801 1.6408913,0.124389062 C1.416181,0.151020662 0.948574801,0.206476104 0.530464976,0.678781041 C0.186915966,1.06217865 0.0876069755,1.80778228 0.0774072514,1.89157439 L0.0762212314,1.90245438 C0.0731375873,1.93809851 0,2.78665599 0,3.63854244 L0,4.43489225 C0,5.2867787 0.0731375873,6.1353362 0.0762212314,6.17106152 L0.0767747101,6.17642032 C0.085551206,6.26069959 0.172841911,7.00865783 0.531888204,7.39635873 C0.923905688,7.83691685 1.41958089,7.89521408 1.68619709,7.92655492 C1.72834015,7.93150776 1.76463221,7.93572983 1.78938039,7.9401955 L1.81333789,7.94360565 C2.6044099,8.02090225 5.08468355,8.05898218 5.18984356,8.06052487 L5.19300627,8.06060606 L5.19616898,8.06052487 C5.21688469,8.06044366 7.28592742,8.04647833 8.65601196,7.94417399 L8.67411845,7.94222534 C8.69143427,7.93987072 8.71088491,7.93775969 8.73223319,7.93548626 C8.95567841,7.91112809 9.42075443,7.86054428 9.83309233,7.39465365 C10.1766413,7.01117485 10.2760294,6.26557122 10.28615,6.1818603 L10.2873361,6.17098033 C10.2904197,6.13525501 10.3636364,5.2867787 10.3636364,4.43489225 L10.3636364,3.63854244 C10.3636364,2.78665599 10.2904197,1.9381797 10.2873361,1.90245438 L10.2873361,1.90245438 Z M9.75623855,4.43489225 C9.75623855,5.22336626 9.68918917,6.0353865 9.68286376,6.10992251 C9.65708769,6.31526189 9.55232303,6.78699849 9.38493679,6.97382565 C9.12685992,7.26539295 8.86174604,7.294298 8.66818839,7.31532721 C8.64478436,7.31784422 8.62311981,7.32028005 8.60351102,7.32279705 C7.27833692,7.42120406 5.28733399,7.43630613 5.1956155,7.43687448 C5.09274845,7.43533181 2.64876686,7.3969271 1.88181048,7.32377137 C1.84251386,7.31719467 1.80005453,7.31216064 1.75530222,7.30696423 C1.52829894,7.28025144 1.21756302,7.24371419 0.978620514,6.97382565 L0.973006705,6.96765492 C0.808545957,6.79170772 0.706785884,6.35058124 0.680930752,6.11235832 C0.676107629,6.05600976 0.607318748,5.23440863 0.607318748,4.43489225 L0.607318748,3.63854244 C0.607318748,2.85096156 0.674210005,2.03983447 0.680693544,1.96375576 C0.711450881,1.72187914 0.818192222,1.2787228 0.978620514,1.09960905 C1.24460415,0.799191607 1.52505717,0.765902096 1.71054991,0.743898542 C1.72826106,0.741787511 1.74478622,0.739838858 1.76004628,0.737809015 C3.10451289,0.638914829 5.10982706,0.624218738 5.18177865,0.623650375 C5.25373024,0.624137549 7.2583328,0.638914829 8.5908602,0.737809015 C8.60722721,0.739920046 8.62509649,0.742031098 8.64430994,0.744304528 C8.83510022,0.766632836 9.12346001,0.8004095 9.38809949,1.09027175 L9.3905506,1.09295114 C9.55501134,1.26889834 9.65677142,1.71773824 9.68262655,1.96075159 C9.68721248,2.01393361 9.75623855,2.83732099 9.75623855,3.63854244 L9.75623855,4.43489225 Z" id="Shape" fill="#000000" fill-rule="nonzero"></path>
                                    </g>
                                </g>
                                <circle id="Oval-Copy" stroke="#FFFFFF" cx="9.5" cy="9.5" r="9"></circle>
                            </g>
                        </g>
                    </g>
                </g>
            </g>
        </g>
    </g>
</svg>