<?xml version="1.0" encoding="UTF-8"?>
<svg width="19px" height="19px" viewBox="0 0 19 19" version="1.1" xmlns="http://www.w3.org/2000/svg" xmlns:xlink="http://www.w3.org/1999/xlink">
    <title>Group 11SVG</title>
    <defs>
        <filter id="filter-1">
            <feColorMatrix in="SourceGraphic" type="matrix" values="0 0 0 0 1.000000 0 0 0 0 1.000000 0 0 0 0 1.000000 0 0 0 1.000000 0"></feColorMatrix>
        </filter>
        <filter id="filter-2">
            <feColorMatrix in="SourceGraphic" type="matrix" values="0 0 0 0 0.163281 0 0 0 0 0.434501 0 0 0 0 0.681810 0 0 0 1.000000 0"></feColorMatrix>
        </filter>
        <filter id="filter-3">
            <feColorMatrix in="SourceGraphic" type="matrix" values="0 0 0 0 1.000000 0 0 0 0 1.000000 0 0 0 0 1.000000 0 0 0 1.000000 0"></feColorMatrix>
        </filter>
    </defs>
    <g id="Symbols" stroke="none" stroke-width="1" fill="none" fill-rule="evenodd">
        <g id="FOOTER" transform="translate(-167.000000, -348.000000)">
            <g id="Group-17" transform="translate(167.000000, 19.000000)">
                <g id="Group-15" transform="translate(0.000000, 306.000000)" filter="url(#filter-1)">
                    <g transform="translate(0.000000, 23.000000)" id="Group-11" filter="url(#filter-2)">
                        <g>
                            <g filter="url(#filter-3)" id="002-facebook">
                                <g transform="translate(6.333333, 4.606061)">
                                    <path d="M3.55636371,10.3636364 L1.93188437,10.3636364 C1.66054447,10.3636364 1.4398196,10.1381337 1.4398196,9.86092029 L1.4398196,6.11751209 L0.492064783,6.11751209 C0.220724871,6.11751209 0,5.89193031 0,5.61479603 L0,4.01073802 C0,3.73352467 0.220724871,3.50802197 0.492064783,3.50802197 L1.4398196,3.50802197 L1.4398196,2.7047674 C1.4398196,1.90831272 1.68461371,1.23069763 2.14765611,0.745297509 C2.6127881,0.257683499 3.26281202,0 4.02745498,0 L5.26636232,0.00205576491 C5.53723787,0.00253018466 5.75757576,0.228032892 5.75757576,0.504771839 L5.75757576,1.99410178 C5.75757576,2.27131515 5.53692829,2.49681784 5.26566579,2.49681784 L4.43152389,2.49713413 C4.17713306,2.49713413 4.11235511,2.54924011 4.09850175,2.56521191 C4.07567083,2.59169976 4.04850588,2.66657742 4.04850588,2.87334095 L4.04850588,3.5079429 L5.20297744,3.5079429 C5.2898898,3.5079429 5.3740934,3.52984481 5.44645587,3.57111844 C5.60255757,3.66022838 5.6996084,3.82872287 5.6996084,4.0108171 L5.69898925,5.61487509 C5.69898925,5.89193031 5.47826438,6.11743302 5.20692449,6.11743302 L4.04850588,6.11743302 L4.04850588,9.86092029 C4.04850588,10.1381337 3.8277036,10.3636364 3.55636371,10.3636364 L3.55636371,10.3636364 Z M2.03450751,9.75607577 L3.45374056,9.75607577 L3.45374056,5.84551724 C3.45374056,5.66041842 3.60117427,5.50987243 3.78227392,5.50987243 L5.10430134,5.50987243 L5.1048431,4.11558256 L3.78219653,4.11558256 C3.60109686,4.11558256 3.45374056,3.96503657 3.45374056,3.77993775 L3.45374056,2.87334095 C3.45374056,2.635978 3.47734545,2.36603893 3.652718,2.16314976 C3.86462008,1.91787997 4.19857091,1.88957352 4.4313691,1.88957352 L5.16288787,1.88925727 L5.16288787,0.60945823 L4.02699061,0.607560591 C2.79814437,0.607560591 2.03450751,1.41121049 2.03450751,2.7047674 L2.03450751,3.77993775 C2.03450751,3.96495749 1.88715122,4.11558256 1.70605157,4.11558256 L0.594687908,4.11558256 L0.594687908,5.50987243 L1.70605157,5.50987243 C1.88715122,5.50987243 2.03450751,5.66041842 2.03450751,5.84551724 L2.03450751,9.75607577 Z" id="Shape" fill="#000000" fill-rule="nonzero"></path>
                                </g>
                            </g>
                            <circle id="Oval-Copy-3" stroke="#FFFFFF" cx="9.5" cy="9.5" r="9"></circle>
                        </g>
                    </g>
                </g>
            </g>
        </g>
    </g>
</svg>