<?xml version="1.0" encoding="UTF-8"?>
<svg width="7px" height="10px" viewBox="0 0 7 10" version="1.1" xmlns="http://www.w3.org/2000/svg" xmlns:xlink="http://www.w3.org/1999/xlink">
    <title>phone-volume-solidSVG</title>
    <defs>
        <filter id="filter-1">
            <feColorMatrix in="SourceGraphic" type="matrix" values="0 0 0 0 1.000000 0 0 0 0 1.000000 0 0 0 0 1.000000 0 0 0 1.000000 0"></feColorMatrix>
        </filter>
    </defs>
    <g id="Symbols" stroke="none" stroke-width="1" fill="none" fill-rule="evenodd">
        <g id="phone-volume-solid" transform="translate(-168.000000, -121.000000)" filter="url(#filter-1)">
            <g transform="translate(168.000000, 121.000000)">
                <path d="M1.77430136,9.90166972 C-0.593192572,7.36507015 -0.589674344,3.25612807 1.77430136,0.723298025 C1.87817111,0.61200905 2.03911636,0.593766877 2.16190798,0.675993375 L3.34346745,1.46726228 C3.47204989,1.55336123 3.52463311,1.72575947 3.46831897,1.8765979 L2.87754835,3.45903806 C2.82570145,3.59790806 2.69436162,3.68327738 2.55545732,3.66839337 L1.5380879,3.55940908 C1.15434585,4.69731834 1.16234845,5.95141892 1.5380879,7.06555866 L2.55547555,6.95655484 C2.69437985,6.94167083 2.82571968,7.02704015 2.87756658,7.16591015 L3.46833719,8.74836984 C3.52464349,8.89920854 3.47206194,9.07160133 3.34348568,9.15770546 L2.16192621,9.94897437 C2.03819555,10.0318147 1.87747508,10.0122009 1.77430136,9.90166972 L1.77430136,9.90166972 Z M4.50490192,1.86470338 C4.72058934,2.25624604 4.72058934,2.74376519 4.50490192,3.13530785 C4.43289674,3.2660304 4.26595409,3.29075694 4.1636885,3.18571796 L4.05476927,3.07388212 C3.98347503,3.00067905 3.96739691,2.88595258 4.01355314,2.79243702 C4.10374061,2.60945638 4.10374061,2.39055485 4.01355314,2.2075742 C3.96737868,2.11405865 3.98347503,1.99933218 4.05476927,1.92612911 L4.1636885,1.81429326 C4.26595409,1.70925428 4.43289674,1.73398082 4.50490192,1.86470338 L4.50490192,1.86470338 Z M6.17810183,0.0837086846 C7.27440351,1.48222321 7.27352851,3.5189013 6.17810183,4.91628301 C6.09654457,5.0203259 5.94969046,5.02850948 5.85814361,4.93450565 L5.75245094,4.82597058 C5.66932597,4.74059955 5.66172441,4.60079498 5.73549782,4.50606849 C6.6412501,3.34321784 6.6405027,1.65581682 5.73549782,0.493923206 C5.66172441,0.399196718 5.66930774,0.25939214 5.75245094,0.174021114 L5.85814361,0.0654860426 C5.94969046,-0.0285177897 6.09654457,-0.0203342024 6.17810183,0.0837086846 Z M5.34007089,0.961461901 C5.9972321,1.86618775 5.9982894,3.1323391 5.34007089,4.03852979 C5.26004487,4.14870549 5.10861524,4.16061954 5.014571,4.06399852 L4.90851375,3.95503377 C4.82830545,3.87263149 4.81740441,3.73833472 4.88508928,3.64388167 C5.36881827,2.96880407 5.36878181,2.03114856 4.88508928,1.35611003 C4.81740441,1.26165698 4.82830545,1.12737974 4.90851375,1.04495793 L5.014571,0.935993171 C5.10861524,0.839372153 5.26004487,0.851286206 5.34007089,0.961461901 Z" id="Shape" fill="#E35457" fill-rule="nonzero"></path>
            </g>
        </g>
    </g>
</svg>