<?xml version="1.0" encoding="UTF-8"?>
<svg width="12px" height="10px" viewBox="0 0 12 10" version="1.1" xmlns="http://www.w3.org/2000/svg" xmlns:xlink="http://www.w3.org/1999/xlink">
    <title>ShapeSVG</title>
    <g id="Symbols" stroke="none" stroke-width="1" fill="none" fill-rule="evenodd">
        <g id="FOOTER" transform="translate(-167.000000, -59.000000)" fill="#FFFFFF" fill-rule="nonzero">
            <path d="M172.841042,61.4929617 L169,64.6712665 L169,68.1015752 C169,68.2865292 169.149238,68.4364641 169.333333,68.4364641 L171.667917,68.4303942 C171.85136,68.4294727 171.999586,68.2798074 171.999583,68.0955053 L171.999583,66.0922419 C171.999583,65.9072879 172.148822,65.757353 172.332917,65.757353 L173.66625,65.757353 C173.850345,65.757353 173.999583,65.9072879 173.999583,66.0922419 L173.999583,68.0940402 C173.999307,68.1830394 174.034303,68.2684888 174.096845,68.3315192 C174.159388,68.3945496 174.24433,68.4299761 174.332917,68.4299756 L176.666667,68.4364641 C176.850762,68.4364641 177,68.2865292 177,68.1015752 L177,64.6689641 L173.159792,61.4929617 C173.06677,61.4176316 172.934063,61.4176316 172.841042,61.4929617 Z M178.907727,63.4742989 L177.166195,62.2061957 L177.166195,59.6572918 C177.166195,59.535332 177.054275,59.4364641 176.916214,59.4364641 L175.749637,59.4364641 C175.611577,59.4364641 175.499657,59.535332 175.499657,59.6572918 L175.499657,60.9934835 L173.634592,59.6379694 C173.265469,59.3696424 172.73298,59.3696424 172.363857,59.6379694 L167.090723,63.4742989 C167.0396,63.5116255 167.007365,63.565369 167.001114,63.6236979 C166.994862,63.6820268 167.015107,63.7401594 167.057392,63.785298 L167.588601,64.3557696 C167.630771,64.4010664 167.691606,64.4296842 167.75769,64.4353113 C167.823774,64.4409384 167.889677,64.4231126 167.940865,64.3857653 L172.840904,60.8205018 C172.933918,60.7542709 173.066615,60.7542709 173.159629,60.8205018 L178.059876,64.3857653 C178.110973,64.4231186 178.17678,64.4410026 178.24281,64.4354804 C178.308839,64.4299581 178.369678,64.4014822 178.411932,64.3563216 L178.943141,63.78585 C178.985382,63.7404485 179.005395,63.6820456 178.998748,63.6235712 C178.992102,63.5650969 178.959344,63.5113749 178.907727,63.4742989 L178.907727,63.4742989 Z" id="Shape"></path>
        </g>
    </g>
</svg>