<?xml version="1.0" encoding="UTF-8"?>
<svg width="22px" height="30px" viewBox="0 0 22 30" version="1.1" xmlns="http://www.w3.org/2000/svg" xmlns:xlink="http://www.w3.org/1999/xlink">
    <title>puntoventa_icoSVG</title>
    <defs>
        <filter id="filter-1">
            <feColorMatrix in="SourceGraphic" type="matrix" values="0 0 0 0 1.000000 0 0 0 0 1.000000 0 0 0 0 1.000000 0 0 0 1.000000 0"></feColorMatrix>
        </filter>
    </defs>
    <g id="Page-1" stroke="none" stroke-width="1" fill="none" fill-rule="evenodd">
        <g id="Group-3-Copy" transform="translate(-220.000000, -436.000000)">
            <g id="puntoventa_ico" transform="translate(220.000000, 436.000000)" filter="url(#filter-1)">
                <g id="pin-(2)" fill="#000000" fill-rule="nonzero">
                    <path d="M11,0 C4.9335,0 0,5.045625 0,11.25 C0,19.048125 9.92933333,29.293125 10.351,29.72625 C10.5306667,29.908125 10.7653333,30 11,30 C11.2346667,30 11.4693333,29.908125 11.649,29.72625 C12.0706667,29.293125 22,19.048125 22,11.25 C22,5.045625 17.0665,0 11,0 Z M11,27.706875 C8.811,25.310625 1.83333333,17.206875 1.83333333,11.25 C1.83333333,6.080625 5.9455,1.875 11,1.875 C16.0545,1.875 20.1666667,6.080625 20.1666667,11.25 C20.1666667,17.20125 13.189,25.310625 11,27.706875 Z" id="Shape"></path>
                    <path d="M11,5.625 C7.96766667,5.625 5.5,8.14875 5.5,11.25 C5.5,14.35125 7.96766667,16.875 11,16.875 C14.0323333,16.875 16.5,14.35125 16.5,11.25 C16.5,8.14875 14.0323333,5.625 11,5.625 Z M11,15 C8.97783333,15 7.33333333,13.318125 7.33333333,11.25 C7.33333333,9.181875 8.97783333,7.5 11,7.5 C13.0221667,7.5 14.6666667,9.181875 14.6666667,11.25 C14.6666667,13.318125 13.0221667,15 11,15 Z" id="Shape"></path>
                </g>
            </g>
        </g>
    </g>
</svg>