<?xml version="1.0" encoding="UTF-8"?>
<svg width="37px" height="38px" viewBox="0 0 37 38" version="1.1" xmlns="http://www.w3.org/2000/svg" xmlns:xlink="http://www.w3.org/1999/xlink">
    <title>bingo (1) copySVG</title>
    <g id="Page-1" stroke="none" stroke-width="1" fill="none" fill-rule="evenodd">
        <g id="Group" fill-rule="nonzero">
            <g id="bingo-(1)">
                <path d="M2.22,19.1015035 C2.22461143,24.8109555 5.31224516,30.0713141 10.2913059,32.8521456 L6.96313957,36.740285 L4.73581555,36.740285 C4.38866656,36.740285 4.10700002,37.0221922 4.10700002,37.3700501 C4.10700002,37.7180928 4.38866656,38 4.73581555,38 L11.026,38 C11.373149,38 11.655,37.7180928 11.655,37.3700501 C11.655,37.0221922 11.373149,36.740285 11.026,36.740285 L8.61864544,36.740285 L11.4461941,33.4366504 C15.4173792,35.2478026 19.9616736,35.321697 23.989856,33.6407838 L26.6421701,36.740285 L24.235,36.740285 C23.8874821,36.740285 23.6058156,37.0221922 23.6058156,37.3700501 C23.6058156,37.7180928 23.8874821,38 24.235,38 L30.525,38 C30.8725179,38 31.154,37.7180928 31.154,37.3700501 C31.154,37.0221922 30.8725179,36.740285 30.525,36.740285 L28.297676,36.740285 L25.1727818,33.0865757 C27.6113097,31.8222422 29.6772335,29.9414446 31.1652519,27.6298426 C31.3428845,27.3383292 31.256005,26.9575882 30.9693581,26.7724827 C30.6827111,26.5871924 30.3005152,26.6645968 30.108495,26.9470582 C26.2142287,33.0041834 18.4683059,35.2755129 11.9268903,32.2789097 C5.38529032,29.2821217 2.03609591,21.9274106 4.06549706,15.0156966 C6.09452931,8.10435203 12.8858848,3.73589897 20.0059434,4.76192294 C27.1254487,5.78813158 32.4112622,11.8977218 32.412,19.1015035 C32.412,19.3041589 32.4077575,19.5053365 32.3992724,19.7057751 C32.3850692,20.0534483 32.6549305,20.3473633 33.0024484,20.3614033 C33.3499663,20.3759974 33.6430692,20.1053592 33.6574569,19.7575012 C33.6653886,19.5424684 33.67,19.3215241 33.67,19.1015035 C33.67,10.4039462 26.629627,3.35294118 17.9448155,3.35294118 C9.26018857,3.35294118 2.22,10.4039462 2.22,19.1015035 Z" id="Path" fill="#192D6D"></path>
                <path d="M18.3148011,28.3137255 C17.1908764,28.3137255 16.28,29.2312777 16.28,30.3631457 C16.28,31.4944128 17.1908764,32.4117647 18.3148011,32.4117647 C19.4389247,32.4117647 20.35,31.4944128 20.35,30.3631457 C20.35,29.2312777 19.4389247,28.3137255 18.3148011,28.3137255 L18.3148011,28.3137255 Z M18.3148011,31.0459519 C17.9404247,31.0459519 17.6366667,30.7401012 17.6366667,30.3631457 C17.6366667,29.9855893 17.9404247,29.6797386 18.3148011,29.6797386 C18.6895753,29.6797386 18.9931344,29.9855893 18.9931344,30.3631457 C18.9931344,30.7401012 18.6895753,31.0459519 18.3148011,31.0459519 L18.3148011,31.0459519 Z" id="Shape" fill="#EAB73B"></path>
                <path d="M12.7648011,30.5490196 C13.8889247,30.5490196 14.8,29.6313569 14.8,28.4997997 C14.8,27.3684429 13.8889247,26.4509804 12.7648011,26.4509804 C11.6410753,26.4509804 10.73,27.3684429 10.73,28.4997997 C10.73,29.6313569 11.6410753,30.5490196 12.7648011,30.5490196 L12.7648011,30.5490196 Z M12.7648011,27.81686 C13.1397742,27.81686 13.4433333,28.1230813 13.4433333,28.4997997 C13.4433333,28.877119 13.1397742,29.1829398 12.7648011,29.1829398 C12.3904247,29.1829398 12.0866667,28.877119 12.0866667,28.4997997 C12.0866667,28.1230813 12.3904247,27.81686 12.7648011,27.81686 L12.7648011,27.81686 Z" id="Shape" fill="#EAB73B"></path>
                <path d="M18.3148011,23.0980392 C17.1908764,23.0980392 16.28,24.0153911 16.28,25.1468585 C16.28,26.2785262 17.1908764,27.1960784 18.3148011,27.1960784 C19.4389247,27.1960784 20.35,26.2785262 20.35,25.1468585 C20.35,24.0153911 19.4389247,23.0980392 18.3148011,23.0980392 L18.3148011,23.0980392 Z M18.3148011,25.8300654 C17.9404247,25.8300654 17.6366667,25.5242146 17.6366667,25.1468585 C17.6366667,24.769903 17.9404247,24.463852 18.3148011,24.463852 C18.6895753,24.463852 18.9931344,24.769903 18.9931344,25.1468585 C18.9931344,25.5242146 18.6895753,25.8300654 18.3148011,25.8300654 L18.3148011,25.8300654 Z" id="Shape" fill="#EAB73B"></path>
                <path d="M25.16,28.4997997 C25.16,27.3684429 24.2487258,26.4509804 23.125,26.4509804 C22.0008764,26.4509804 21.09,27.3684429 21.09,28.4997997 C21.09,29.6313569 22.0008764,30.5490196 23.125,30.5490196 C24.2487258,30.5490196 25.16,29.6313569 25.16,28.4997997 L25.16,28.4997997 Z M22.4464678,28.4997997 C22.4464678,28.1230813 22.7502258,27.81686 23.125,27.81686 C23.4995753,27.81686 23.8031344,28.1230813 23.8031344,28.4997997 C23.8031344,28.877119 23.4995753,29.1829398 23.125,29.1829398 C22.7502258,29.1829398 22.4464678,28.877119 22.4464678,28.4997997 Z" id="Shape" fill="#EAB73B"></path>
                <path d="M6.29,24.4019608 C6.29,25.5336285 7.20087632,26.4509804 8.32480109,26.4509804 C9.44892477,26.4509804 10.36,25.5336285 10.36,24.4019608 C10.36,23.2702931 9.44892477,22.3529412 8.32480109,22.3529412 C7.20087632,22.3529412 6.29,23.2702931 6.29,24.4019608 L6.29,24.4019608 Z M9.0031344,24.4019608 C9.0031344,24.7793169 8.69957529,25.0849673 8.32480109,25.0849673 C7.95042471,25.0849673 7.64666663,24.7793169 7.64666663,24.4019608 C7.64666663,24.024805 7.95042471,23.7189542 8.32480109,23.7189542 C8.69957529,23.7189542 9.0031344,24.024805 9.0031344,24.4019608 Z" id="Shape" fill="#EAB73B"></path>
                <path d="M12.21,16.9509804 C12.21,15.819513 11.2985714,14.9019608 10.1750994,14.9019608 C9.05142855,14.9019608 8.14,15.819513 8.14,16.9509804 C8.14,18.0828484 9.05142855,19 10.1750994,19 C11.2985714,19 12.21,18.0828484 12.21,16.9509804 Z M9.49640146,16.9509804 C9.49640146,16.5738246 9.8003436,16.2681741 10.1750994,16.2681741 C10.5494575,16.2681741 10.8533996,16.5738246 10.8533996,16.9509804 C10.8533996,17.3283365 10.5494575,17.6341872 10.1750994,17.6341872 C9.8003436,17.6341872 9.49640146,17.3283365 9.49640146,16.9509804 Z" id="Shape" fill="#EAB73B"></path>
                <path d="M15.17,23.2844139 C15.17,22.1524905 14.2587258,21.2352941 13.135,21.2352941 C12.0108763,21.2352941 11.1,22.1524905 11.1,23.2844139 C11.1,24.4159366 12.0108763,25.3333333 13.135,25.3333333 C14.2587258,25.3333333 15.17,24.4159366 15.17,23.2844139 L15.17,23.2844139 Z M13.135,23.9672535 C12.7602258,23.9672535 12.4564677,23.6615882 12.4564677,23.2844139 C12.4564677,22.9068391 12.7602258,22.6011737 13.135,22.6011737 C13.5095753,22.6011737 13.8131344,22.9068391 13.8131344,23.2844139 C13.8131344,23.6615882 13.5095753,23.9672535 13.135,23.9672535 Z" id="Shape" fill="#EAB73B"></path>
                <path d="M24.42,13.5978389 C24.42,14.7298176 25.3311198,15.6470588 26.4549005,15.6470588 C27.5790792,15.6470588 28.49,14.7298176 28.49,13.5978389 C28.49,12.4662608 27.5790792,11.5490196 26.4549005,11.5490196 C25.3311198,11.5490196 24.42,12.4662608 24.42,13.5978389 L24.42,13.5978389 Z M27.133466,13.5978389 C27.133466,13.9754322 26.829892,14.2811125 26.4549005,14.2811125 C26.0803069,14.2811125 25.7767329,13.9754322 25.7767329,13.5978389 C25.7767329,13.2206462 26.0803069,12.9149659 26.4549005,12.9149659 C26.829892,12.9149659 27.133466,13.2206462 27.133466,13.5978389 L27.133466,13.5978389 Z" id="Shape" fill="#EAB73B"></path>
                <path d="M17.205199,12.2941176 C18.3290346,12.2941176 19.24,11.3765654 19.24,10.245098 C19.24,9.11323004 18.3290346,8.19607843 17.205199,8.19607843 C16.0809654,8.19607843 15.17,9.11323004 15.17,10.245098 C15.17,11.3765654 16.0809654,12.2941176 17.205199,12.2941176 Z M17.205199,9.56189122 C17.5798109,9.56189122 17.8833996,9.86794224 17.8833996,10.245098 C17.8833996,10.6222538 17.5798109,10.9279042 17.205199,10.9279042 C16.8301892,10.9279042 16.5266004,10.6222538 16.5266004,10.245098 C16.5266004,9.86794224 16.8301892,9.56189122 17.205199,9.56189122 Z" id="Shape" fill="#EAB73B"></path>
                <path d="M17.6434757,17.2879469 C17.9816733,17.2875755 18.3136568,17.3750507 18.6066609,17.5412721 C18.9119049,17.6987645 19.2881403,17.5908599 19.460252,17.297233 C19.632552,17.0032347 19.5395288,16.6277043 19.2489727,16.4456965 C17.830087,15.6359474 16.020843,16.0103635 15.051632,17.313948 C14.0822327,18.6177183 14.2643246,20.4322248 15.4741906,21.5231573 C16.6838684,22.6142756 18.53228,22.6311763 19.7624831,21.5629019 C19.9347831,21.4132097 20.0125535,21.1843999 19.9673601,20.9624618 C19.92179,20.7407094 19.7598468,20.559816 19.5425417,20.4877557 C19.3250483,20.4155098 19.0851464,20.4632404 18.9130348,20.6129325 C18.2699698,21.172328 17.329193,21.2451311 16.6055331,20.7914117 C15.8818732,20.3378779 15.5493247,19.4670262 15.7899798,18.6552342 C16.0302582,17.8430708 16.7861185,17.285904 17.6434757,17.2879469 L17.6434757,17.2879469 Z" id="Path" fill="#192D6D"></path>
                <path d="M34.4701876,21.0381859 C33.3198211,21.0422577 32.3169375,21.8199699 32.0295777,22.9315691 L27.4026965,22.9315691 C27.2348072,22.9315691 27.0741528,22.8647546 26.9554245,22.7466727 L22.6359384,18.4372363 C22.2810519,18.0811396 21.7979758,17.8812516 21.2944934,17.8823575 L18.022414,17.8823575 C17.6732785,17.8823575 17.39,18.1653517 17.39,18.5134899 C17.39,18.8621833 17.6732785,19.1448027 18.022414,19.1448027 L21.2944934,19.1448027 C21.4621972,19.1448027 21.6232226,19.2112469 21.7415799,19.3296991 L26.0608805,23.6389503 C26.415767,23.9954172 26.8993995,24.1953052 27.4026965,24.1936395 L32.0295777,24.1936395 C32.3603475,25.460707 33.6088505,26.2639605 34.902433,26.0414926 C36.1956446,25.819765 37.1031745,24.6463487 36.9905681,23.3417096 C36.8777761,22.0372555 35.782507,21.0361499 34.4701876,21.0381859 L34.4701876,21.0381859 Z M34.4701876,24.8247672 C33.7711744,24.8247672 33.204803,24.2595284 33.204803,23.5625117 C33.204803,22.865495 33.7711744,22.3002563 34.4701876,22.3002563 C35.1688298,22.3002563 35.7352012,22.865495 35.7352012,23.5625117 C35.7352012,24.2595284 35.1688298,24.8247672 34.4701876,24.8247672 Z" id="Shape" fill="#192D6D"></path>
                <path d="M8.76685364,3.35294118 C8.87210897,3.35328439 8.97589987,3.32747372 9.06797535,3.2781349 C11.6526797,1.91315254 14.5553466,1.19747618 17.5057902,1.19747618 C17.8506615,1.19747618 18.13,0.929536522 18.13,0.598913698 C18.13,0.268290874 17.8506615,0 17.5057902,0 C14.3444699,-0.000175541624 11.2349534,0.76641987 8.4655489,2.2286752 C8.21440058,2.36001129 8.08864335,2.63778364 8.1596678,2.90344073 C8.2308753,3.16909782 8.48092533,3.35433791 8.76685364,3.35294118 Z" id="Path" fill="#192D6D"></path>
                <path d="M2.56841636,7.32269249 C1.53655685,8.68723472 0.688771825,10.1858639 0.0468375888,11.7786189 C-0.0845644109,12.1075863 0.0699166978,12.4823856 0.392651956,12.618177 C0.469148047,12.650373 0.550855549,12.6670392 0.633679759,12.6666667 C0.891086284,12.6666667 1.12280797,12.5085212 1.2208942,12.2661043 C1.82020654,10.7799748 2.6119689,9.38191077 3.5747772,8.10903245 C3.78137243,7.82589702 3.72683874,7.42666662 3.45175067,7.21190038 C3.17703478,6.9975129 2.78394544,7.04637504 2.56841636,7.32269249 L2.56841636,7.32269249 Z" id="Path" fill="#192D6D"></path>
                <path d="M29.8492002,32.3655638 C29.6578568,32.5167034 29.5667504,32.7564884 29.6110135,32.9918508 C29.655475,33.2266363 29.8281603,33.4200796 30.0623773,33.4956494 C30.2963957,33.5712191 30.5544313,33.517955 30.7356517,33.3556626 C31.7662062,32.489206 32.7044633,31.5250662 33.5365289,30.4776652 C33.7568516,30.1901923 33.6984959,29.7850383 33.4051292,29.5669819 C33.1125566,29.3491179 32.6931495,29.3989209 32.4631008,29.679279 C31.6868106,30.656879 30.8106805,31.5566017 29.8492002,32.3655638 L29.8492002,32.3655638 Z" id="Path" fill="#192D6D"></path>
            </g>
        </g>
    </g>
</svg>