<?xml version="1.0" encoding="UTF-8"?>
<svg width="38px" height="40px" viewBox="0 0 38 40" version="1.1" xmlns="http://www.w3.org/2000/svg" xmlns:xlink="http://www.w3.org/1999/xlink">
    <title>gira copySVG</title>
    <defs>
        <rect id="path-1" x="0" y="0" width="24.2985075" height="47.3469388"></rect>
        <rect id="path-3" x="0" y="-2.52710035e-14" width="24.2985075" height="47.3469388"></rect>
        <filter id="filter-5">
            <feColorMatrix in="SourceGraphic" type="matrix" values="0 0 0 0 0.098039 0 0 0 0 0.176471 0 0 0 0 0.427451 0 0 0 1.000000 0"></feColorMatrix>
        </filter>
    </defs>
    <g id="Page-1" stroke="none" stroke-width="1" fill="none" fill-rule="evenodd">
        <g id="Group-4" transform="translate(-3.000000, -4.000000)">
            <g id="path6216" transform="translate(0.000000, 0.653061)">
                <mask id="mask-2" fill="white">
                    <use xlink:href="#path-1"></use>
                </mask>
                <g id="Mask"></g>
                <path d="M21.8662351,4.36365597 C21.4313246,4.34636545 21.0691455,4.68862079 21.0691455,5.11700555 L21.0691455,9.16444165 C14.4941007,9.31423896 8.45477239,12.8250225 5.15592164,18.4488047 C1.78384701,24.1973371 1.78384701,31.2835417 5.15592164,37.0320742 C8.52799627,42.7806066 14.7630261,46.3238178 21.5071754,46.3238178 C22.6173545,46.3392219 22.6173545,44.6922594 21.5071754,44.7077724 C15.3470112,44.7077724 9.65787687,41.4749299 6.57771269,36.2241059 C3.49754851,30.9732819 3.49771269,24.5075969 6.57771269,19.2567729 C9.58465299,14.1306992 15.0784142,10.9296907 21.0691455,10.7803781 L21.0691455,14.8129476 C21.0694739,15.3990478 21.7189664,15.7608559 22.2295634,15.4593222 L30.4385187,10.6115128 C30.9341754,10.3185435 30.9341754,9.61140968 30.4385187,9.31844039 L22.2295634,4.47063096 C22.1195634,4.40550872 21.9946231,4.36882696 21.8662351,4.36365597 Z M22.6015933,6.4488604 L28.5553843,9.96481498 L22.6015933,13.4810928 L22.6015933,6.4488604 Z" fill="#192D6D" fill-rule="nonzero" mask="url(#mask-2)" transform="translate(16.718563, 25.343477) rotate(-405.000000) translate(-16.718563, -25.343477) "></path>
                <path d="M16.0141756,31.2804077 C15.7043775,31.2904459 15.5221663,31.6263816 15.6825747,31.8919211 C18.9634069,37.4989052 23.1296528,41.0666578 29.6978324,41.1050745 C30.2504426,41.1160986 30.2455898,40.288826 29.693071,40.2933863 C23.4156374,40.2566701 19.5947313,36.9707978 16.3878557,31.490216 C16.3122219,31.356499 16.1677667,31.2752997 16.0141756,31.2804077 Z" id="path6216-path" fill="#EAB73B" fill-rule="nonzero" mask="url(#mask-2)" transform="translate(22.866508, 36.192682) rotate(-38.000000) translate(-22.866508, -36.192682) "></path>
            </g>
            <g id="path6216-copy" transform="translate(31.850746, 23.673469) rotate(-180.000000) translate(-31.850746, -23.673469) translate(19.701493, 0.000000)">
                <mask id="mask-4" fill="white">
                    <use xlink:href="#path-3"></use>
                </mask>
                <g id="Mask"></g>
                <path d="M21.8662351,4.36365597 C21.4313246,4.34636545 21.0691455,4.68862079 21.0691455,5.11700555 L21.0691455,9.16444165 C14.4941007,9.31423896 8.45477239,12.8250225 5.15592164,18.4488047 C1.78384701,24.1973371 1.78384701,31.2835417 5.15592164,37.0320742 C8.52799627,42.7806066 14.7630261,46.3238178 21.5071754,46.3238178 C22.6173545,46.3392219 22.6173545,44.6922594 21.5071754,44.7077724 C15.3470112,44.7077724 9.65787687,41.4749299 6.57771269,36.2241059 C3.49754851,30.9732819 3.49771269,24.5075969 6.57771269,19.2567729 C9.58465299,14.1306992 15.0784142,10.9296907 21.0691455,10.7803781 L21.0691455,14.8129476 C21.0694739,15.3990478 21.7189664,15.7608559 22.2295634,15.4593222 L30.4385187,10.6115128 C30.9341754,10.3185435 30.9341754,9.61140968 30.4385187,9.31844039 L22.2295634,4.47063096 C22.1195634,4.40550872 21.9946231,4.36882696 21.8662351,4.36365597 Z M22.6015933,6.4488604 L28.5553843,9.96481498 L22.6015933,13.4810928 L22.6015933,6.4488604 Z" id="path6216" fill="#192D6D" fill-rule="nonzero" mask="url(#mask-4)" transform="translate(16.718563, 25.343477) rotate(-405.000000) translate(-16.718563, -25.343477) "></path>
                <path d="M17.4061235,31.3509709 C17.0968446,31.3609746 16.915,31.697442 17.0751898,31.9634522 C20.351585,37.5803577 24.5115368,41.1547677 31.0687563,41.1943363 C31.6204458,41.2054704 31.6154475,40.3768133 31.0638521,40.3812897 C24.7968935,40.3434726 20.9817572,37.0514717 17.7792186,31.561192 C17.7036863,31.4272388 17.5594572,31.3458798 17.4061235,31.3509709 Z" id="path6216-path" fill="#EAB73B" fill-rule="nonzero" mask="url(#mask-4)" transform="translate(24.247926, 36.272596) rotate(-46.000000) translate(-24.247926, -36.272596) "></path>
            </g>
            <g filter="url(#filter-5)" id="dollar">
                <g transform="translate(15.432836, 11.102041)">
                    <path d="M11.4256074,12.0875188 C10.601366,11.4390825 9.38533392,10.8092793 7.70809841,10.1619896 C5.88100081,9.46080691 5.13778944,9.02966267 4.8354514,8.79087067 C4.47851245,8.50936559 4.31238626,8.14042766 4.31238626,7.63073718 C4.31238626,7.26638589 4.31238626,6.15727878 7.25764087,6.15727878 C8.8384535,6.15727878 10.2731796,6.40954404 11.5220303,6.90690791 C11.6701498,6.96596091 11.8368569,6.95736096 11.9777156,6.88311471 C12.1182839,6.80915513 12.2193537,6.67757586 12.2527532,6.52335006 L12.8156073,3.92501798 C12.8748551,3.65067952 12.7090193,3.37748772 12.4351435,3.30037481 C11.404406,3.00969645 10.0719114,2.83339743 8.46786431,2.77491776 L8.46786431,0.576196767 C8.48035282,0.427704267 8.42865621,0.281218422 8.32700557,0.17171237 C8.22419322,0.0624929827 8.08013974,0 7.93027766,0 L6.07820305,0 C5.92717924,0 5.78312577,0.0624929827 5.68060384,0.171999035 C5.57808191,0.281505087 5.52696616,0.428850927 5.53945467,0.577056762 L5.55484748,2.89589042 C3.93192245,3.14041571 2.6795866,3.73811236 1.82688297,4.6755071 C0.891987537,5.70406133 0.417714706,6.90920123 0.417714706,8.25767367 C0.417714706,9.8194249 1.09674096,11.1475441 2.43940067,12.2070582 C3.22559574,12.8179414 4.45150242,13.4468845 6.18827617,14.1300074 C7.51176746,14.6457178 8.42517105,15.095782 8.90263861,15.4681599 C9.39898415,15.8551577 9.64062224,16.3043618 9.64062224,16.8412855 C9.64062224,17.8426065 8.46060356,18.350577 6.13280396,18.350577 C4.42768713,18.350577 2.80127693,18.0610453 1.29771879,17.4902952 C1.15018016,17.4341088 0.984634832,17.4447154 0.845518674,17.5198217 C0.706402516,17.5946413 0.607365753,17.7256472 0.574837549,17.878153 L0.0116930183,20.5123182 C-0.0490069337,20.7969766 0.132512061,21.0773351 0.419457289,21.142408 C2.02147133,21.5076193 3.73501065,21.7088582 5.52115756,21.7426847 L5.53074176,23.9244924 C5.52231928,24.0712649 5.55339533,24.2151708 5.65562683,24.3220969 C5.75785833,24.4293096 5.90016922,24.4897959 6.04916001,24.4897959 L7.93056809,24.4897959 C7.93289153,24.4897959 7.93521498,24.4897959 7.93695756,24.4897959 C8.23581043,24.4897959 8.47744852,24.2510039 8.47744852,23.9563122 C8.47744852,23.9153191 8.47280163,23.875186 8.46379829,23.8370596 L8.47076862,21.564379 C11.7395627,20.9962089 13.4626866,19.0798529 13.4626866,15.9996369 C13.4632671,14.4737188 12.7775609,13.1579262 11.4256074,12.0875188 Z" id="Path" fill="#000000" fill-rule="nonzero"></path>
                </g>
            </g>
        </g>
    </g>
</svg>