<?xml version="1.0" encoding="UTF-8"?>
<svg width="36px" height="36px" viewBox="0 0 36 36" version="1.1" xmlns="http://www.w3.org/2000/svg" xmlns:xlink="http://www.w3.org/1999/xlink">
    <title>mision 2SVG</title>
    <defs>
        <filter id="filter-1">
            <feColorMatrix in="SourceGraphic" type="matrix" values="0 0 0 0 0.098039 0 0 0 0 0.176471 0 0 0 0 0.427451 0 0 0 1.000000 0"></feColorMatrix>
        </filter>
    </defs>
    <g id="Page-1" stroke="none" stroke-width="1" fill="none" fill-rule="evenodd">
        <g id="Quienes-somos" transform="translate(-762.000000, -953.000000)">
            <g id="mision" transform="translate(762.000000, 953.000000)" filter="url(#filter-1)">
                <g>
                    <path d="M28.2370914,36 L0.762908583,36 C0.494272128,36 0.243951796,35.8616764 0.106580882,35.6355992 C-0.0307900325,35.4095219 -0.035369063,35.1299 0.0928437903,34.8993607 L13.8299352,10.3580796 C14.0970453,9.88064013 14.9029547,9.88064013 15.1700648,10.3580796 L28.9071562,34.8993607 C29.0353691,35.1299 29.03079,35.4095219 28.8934191,35.6355992 C28.7560482,35.8616764 28.5057279,36 28.2370914,36 Z M2.0480898,34.5126496 L26.9503839,34.5126496 L14.5,12.2678375 L2.0480898,34.5126496 Z" id="Shape" fill="#000000" fill-rule="nonzero"></path>
                    <path d="M35.2622001,36 L27.8997105,36 C27.4933011,36 27.1634616,35.6741818 27.1634616,35.2727273 C27.1634616,34.8712727 27.4933011,34.5454545 27.8997105,34.5454545 L34.0164669,34.5454545 L27.206164,22.3127273 L24.399583,28.0494545 C24.2228832,28.4101818 23.7855514,28.5629091 23.4159544,28.3869091 C23.0493024,28.2123636 22.8961626,27.7774545 23.0743349,27.4152727 L26.50231,20.4101818 C26.6230548,20.1658182 26.8704345,20.0072727 27.1457916,20 C27.4226212,20.0130909 27.6773633,20.1381818 27.8098882,20.3767273 L35.9086267,34.9221818 C36.033789,35.1476364 36.030844,35.4210909 35.8968467,35.6421818 C35.7628494,35.8647273 35.5228322,36 35.2622001,36 L35.2622001,36 Z" id="Path" fill="#000000" fill-rule="nonzero"></path>
                    <path d="M13.7856643,11 C13.3519776,11 13,10.6714667 13,10.2666667 L13,0.733333333 C13,0.328533333 13.3519776,0 13.7856643,0 L23.2136362,0 C23.5310445,0 23.8185977,0.178933333 23.93959,0.4532 C24.0621536,0.727466667 23.9945865,1.0428 23.7698865,1.25253333 L21.1819082,3.66666667 L23.7683152,6.0808 C23.9930152,6.29053333 24.0605823,6.60586667 23.9380187,6.88013333 C23.8185977,7.1544 23.5310445,7.33333333 23.2136362,7.33333333 L14.5713286,7.33333333 L14.5713286,10.2666667 C14.5713286,10.6714667 14.219351,11 13.7856643,11 L13.7856643,11 Z M14.5713286,5.86666667 L21.3170425,5.86666667 L19.5162999,4.18586667 C19.2098908,3.89986667 19.2098908,3.43493333 19.5162999,3.14893333 L21.3170425,1.46666667 L14.5713286,1.46666667 L14.5713286,5.86666667 Z" id="Shape" fill="#000000" fill-rule="nonzero"></path>
                </g>
            </g>
        </g>
    </g>
</svg>