<?xml version="1.0" encoding="UTF-8"?>
<svg width="37px" height="36px" viewBox="0 0 37 36" version="1.1" xmlns="http://www.w3.org/2000/svg" xmlns:xlink="http://www.w3.org/1999/xlink">
    <title>telescopioSVG</title>
    <g id="Page-1" stroke="none" stroke-width="1" fill="none" fill-rule="evenodd">
        <g id="Quienes-somos" transform="translate(-762.000000, -1054.000000)" fill-rule="nonzero">
            <g id="Group-3-Copy" transform="translate(762.000000, 1049.000000)">
                <g id="telescopio" transform="translate(0.000000, 5.000000)">
                    <path d="M26.516498,31.0059435 L10.4831406,31.0059435 C10.1427695,31.0059435 9.86649805,31.2827661 9.86649805,31.6252742 C9.86649805,31.9677823 10.1427695,32.2446048 10.4831406,32.2446048 L26.516498,32.2446048 C26.8575195,32.2446048 27.1331406,31.9677823 27.1331406,31.6252742 C27.1331406,31.2827661 26.8575195,31.0059435 26.516498,31.0059435 Z" id="Path" fill="#192D6D"></path>
                    <path d="M18.4997832,14.9027661 C17.1393828,14.9027661 16.0331406,16.0139032 16.0331406,17.3801613 C16.0331406,18.7464194 17.1394551,19.8575565 18.4997832,19.8575565 C19.8601836,19.8575565 20.9664258,18.7464194 20.9664258,17.3801613 C20.9664258,16.0139032 19.8601836,14.9027661 18.4997832,14.9027661 Z M18.4997832,18.6188952 C17.8196191,18.6188952 17.2664258,18.0633629 17.2664258,17.3801613 C17.2664258,16.6970323 17.8195469,16.1414274 18.4997832,16.1414274 C19.1799473,16.1414274 19.7331406,16.6969597 19.7331406,17.3801613 C19.7331406,18.0632903 19.1800195,18.6188952 18.4997832,18.6188952 Z" id="Shape" fill="#192D6D"></path>
                    <path d="M20.3498555,18.6188952 L16.6498555,18.6188952 C16.3094844,18.6188952 16.0332129,18.8957177 16.0332129,19.2382258 L16.0332129,21.715621 C16.0332129,22.058129 16.3094844,22.3349516 16.6498555,22.3349516 L20.3498555,22.3349516 C20.690877,22.3349516 20.966498,22.0574758 20.966498,21.715621 L20.966498,19.2382258 C20.966498,18.8957177 20.6908047,18.6188952 20.3498555,18.6188952 Z M19.7331406,21.0962903 L17.266498,21.0962903 L17.266498,19.8575565 L19.7331406,19.8575565 L19.7331406,21.0962903 Z" id="Shape" fill="#192D6D"></path>
                    <path d="M29.5035977,35.0088387 L20.8703125,21.3830565 C20.6877695,21.0950565 20.307291,21.0095565 20.0186621,21.1928952 C19.7312617,21.3768145 19.6462051,21.7596048 19.8293262,22.0482581 L28.4626836,35.6740403 C28.5804766,35.8591935 28.7796406,35.9608065 28.983791,35.9608065 C29.097248,35.9608065 29.2113555,35.9292339 29.314334,35.8642016 C29.6016621,35.6802097 29.686791,35.2974919 29.5035977,35.0088387 Z" id="Path" fill="#192D6D"></path>
                    <path d="M18.4997832,21.0962903 C18.1594121,21.0962903 17.8831406,21.3731129 17.8831406,21.715621 L17.8831406,35.3414032 C17.8831406,35.6839113 18.1594121,35.9607339 18.4997832,35.9607339 C18.8408047,35.9607339 19.1164258,35.6832581 19.1164258,35.3414032 L19.1164258,21.715621 C19.116498,21.3731129 18.8408047,21.0962903 18.4997832,21.0962903 Z" id="Path" fill="#192D6D"></path>
                    <path d="M16.9809766,21.1928952 C16.6935762,21.0102097 16.3125195,21.0950565 16.1293262,21.3830565 L7.49604102,35.0088387 C7.31349805,35.2974919 7.39797656,35.6802097 7.68537695,35.8642016 C7.78777734,35.9292339 7.90246289,35.9608065 8.01591992,35.9608065 C8.22007031,35.9608065 8.41923437,35.8586129 8.53702734,35.6740403 L17.1703125,22.0482581 C17.3527832,21.7596048 17.2683047,21.3768145 16.9809766,21.1928952 Z" id="Path" fill="#192D6D"></path>
                    <path d="M29.3611621,11.1637016 L26.9376621,4.79670968 C26.8174121,4.47837097 26.4634551,4.31731452 26.1458477,4.43750806 L8.41049023,11.1079597 C8.25692578,11.1655887 8.13176172,11.2825887 8.06455469,11.433121 C7.99734766,11.5836532 7.99243359,11.7545806 8.05096875,11.9088145 L10.4744687,18.2758065 C10.5681973,18.5222903 10.8025547,18.6740565 11.0504258,18.6740565 C11.1225469,18.6740565 11.1953184,18.6616452 11.2662832,18.6350081 L29.0016406,11.9645565 C29.1557832,11.9069274 29.2803691,11.7899274 29.3475762,11.6393952 C29.4154336,11.4888629 29.4203477,11.3179355 29.3611621,11.1637016 Z M11.4081406,17.2593871 L9.42495508,12.0494032 L26.005291,5.81312903 L27.9878984,11.0231129 L11.4081406,17.2593871 Z" id="Shape" fill="#192D6D"></path>
                    <path d="M36.959748,10.3505081 L33.259748,0.440854839 C33.141377,0.122516129 32.7911055,-0.0410080645 32.4716191,0.0760645161 L25.688334,2.5533871 C25.5329629,2.60978226 25.4071484,2.72678226 25.3387129,2.87731452 C25.2702773,3.02784677 25.2640625,3.20000806 25.3233203,3.35482258 C25.5576777,3.97415323 29.0220918,13.2620081 29.0220918,13.2620081 C29.1152422,13.5097258 29.3501777,13.6639597 29.5999277,13.6639597 C29.6695918,13.6639597 29.7411348,13.6515484 29.8102207,13.6274516 L36.5935781,11.1500565 C36.7483711,11.0936613 36.8741855,10.9772419 36.9426211,10.8273629 C37.0109121,10.6769032 37.0177051,10.5053226 36.959748,10.3505081 Z M29.9630625,12.2524839 C29.3136836,10.5120726 27.3699551,5.30332258 26.696584,3.5028871 L32.3199336,1.44907258 L35.5870625,10.1986694 L29.9630625,12.2524839 Z" id="Shape" fill="#192D6D"></path>
                    <path d="M10.758834,15.5363226 L9.83383398,12.842129 C9.77775586,12.6798387 9.65685547,12.5479597 9.50018359,12.4779194 C9.34293359,12.4091855 9.16530469,12.4072984 9.00747656,12.4754516 L4.69083398,14.3335161 C4.5348125,14.4004355 4.41333398,14.5292661 4.35472656,14.6896694 C4.29611914,14.8494919 4.30601953,15.0265887 4.38182617,15.1795887 L5.61518359,17.6569839 C5.72249805,17.8725484 5.93958398,17.9994919 6.16707617,17.9994919 C6.24476172,17.9994919 6.32309766,17.9846129 6.40020508,17.9530403 L10.4085625,16.3117742 C10.7119336,16.187879 10.865498,15.8472581 10.758834,15.5363226 Z M6.46249805,16.5898306 L5.77734766,15.2129758 L8.88289063,13.8764032 L9.40154102,15.386371 L6.46249805,16.5898306 Z" id="Shape" fill="#192D6D"></path>
                    <path d="M5.49247656,14.6419839 L3.48211914,10.3065242 C3.34524805,10.0117016 3.00480469,9.87234677 2.70266211,9.98941935 L0.396304688,10.8750484 C0.237175781,10.9357258 0.110205078,11.0608548 0.0460332031,11.2187903 C-0.0187167969,11.3767258 -0.01503125,11.555129 0.0559335938,11.7105242 L1.90593359,15.7796855 C2.00768359,16.0038871 2.22968359,16.1414274 2.46649805,16.1414274 C2.51585547,16.1414274 2.56636914,16.1352581 2.61637695,16.1240806 L5.08301953,15.50475 C5.26122656,15.4595323 5.41045508,15.336871 5.49001953,15.1702984 C5.56958398,15.0030726 5.57016211,14.8098629 5.49247656,14.6419839 Z M2.8143125,14.7955645 L1.45022656,11.7954435 L2.60647656,11.3513952 L4.05872656,14.4834677 L2.8143125,14.7955645 Z" id="Shape" fill="#192D6D"></path>
                    <path d="M6.7178125,17.1032661 L5.48445508,14.625871 C5.35560547,14.3663952 5.06574805,14.2332097 4.78333398,14.3019435 L2.31669141,14.9212742 C2.13414844,14.9671452 1.98246289,15.0946694 1.90477734,15.2669032 C1.8270918,15.4397177 1.83200586,15.6385161 1.91836328,15.8063226 L2.01332031,15.9896613 C2.66016992,17.2946613 4.00207031,18.0929758 5.41052734,18.0929758 C5.71144141,18.0929758 6.01546289,18.0564677 6.31579883,17.9814919 C6.49711328,17.9356935 6.64814844,17.8099113 6.72648438,17.6389839 C6.80474805,17.468129 6.8010625,17.2711452 6.7178125,17.1032661 Z M3.42972656,15.9184597 L4.60324805,15.6236371 L5.21186914,16.8468387 C4.52368359,16.7936371 3.87495508,16.4591855 3.42972656,15.9184597 Z" id="Shape" fill="#192D6D"></path>
                    <polygon id="Rectangle" fill="#EAB73B" transform="translate(16.650738, 11.186864) rotate(-20.547998) translate(-16.650738, -11.186864) " points="11.3791331 10.5753636 21.9241095 10.560264 21.9223424 11.7983639 11.377366 11.8134636"></polygon>
                    <polygon id="Rectangle" fill="#EAB73B" transform="translate(24.356550, 8.398145) rotate(-18.445820) translate(-24.356550, -8.398145) " points="23.3820198 7.78037403 25.3326939 7.77782284 25.3310803 9.01591552 23.3804061 9.01846671"></polygon>
                    <path d="M9.45949805,15.5220968 C8.43954102,15.5220968 7.60949805,16.3557581 7.60949805,17.3801613 C7.60949805,18.4045645 8.43954102,19.2382258 9.45949805,19.2382258 C10.4794551,19.2382258 11.309498,18.4045645 11.309498,17.3801613 C11.309498,16.3557581 10.4794551,15.5220968 9.45949805,15.5220968 Z M9.45949805,17.9994919 C9.11970508,17.9994919 8.84285547,17.7214355 8.84285547,17.3801613 C8.84285547,17.0388871 9.11970508,16.7608306 9.45949805,16.7608306 C9.79929102,16.7608306 10.0761406,17.0388871 10.0761406,17.3801613 C10.0761406,17.7214355 9.79929102,17.9994919 9.45949805,17.9994919 Z" id="Shape" fill="#192D6D"></path>
                </g>
            </g>
        </g>
    </g>
</svg>