<?xml version="1.0" encoding="UTF-8"?>
<svg width="32px" height="32px" viewBox="0 0 32 32" version="1.1" xmlns="http://www.w3.org/2000/svg" xmlns:xlink="http://www.w3.org/1999/xlink">
    <title>icono5SVG</title>
    <g id="Page-1" stroke="none" stroke-width="1" fill="none" fill-rule="evenodd">
        <g id="icono5">
            <g id="Group-33" fill="#0A54D0">
                <circle id="Oval-Copy-7" style="mix-blend-mode: multiply;" cx="16" cy="16" r="16"></circle>
            </g>
            <g id="Group" transform="translate(8.000000, 7.000000)" fill-rule="nonzero">
                <g id="change">
                    <path d="M6.328125,3.8671875 C6.328125,2.89792969 5.53957031,2.109375 4.5703125,2.109375 C3.60105469,2.109375 2.8125,2.89792969 2.8125,3.8671875 C2.8125,4.83644531 3.60105469,5.625 4.5703125,5.625 C5.53957031,5.625 6.328125,4.83644531 6.328125,3.8671875 Z M4.5703125,4.921875 C3.98875781,4.921875 3.515625,4.44874219 3.515625,3.8671875 C3.515625,3.28563281 3.98875781,2.8125 4.5703125,2.8125 C5.15186719,2.8125 5.625,3.28563281 5.625,3.8671875 C5.625,4.44874219 5.15186719,4.921875 4.5703125,4.921875 Z" id="Shape" fill="#FFFFFF"></path>
                    <path d="M4.5703125,9.140625 C7.12114453,9.140625 9.140625,7.06109766 9.140625,4.5703125 C9.140625,2.05024219 7.09041797,0 4.5703125,0 C2.05020703,0 0,2.05024219 0,4.5703125 C0,7.06092188 2.01912891,9.140625 4.5703125,9.140625 Z M2.81425781,8.01604688 C2.85113672,7.07909766 3.62446875,6.328125 4.5703125,6.328125 C5.51615625,6.328125 6.28948828,7.07909766 6.32636719,8.01604688 C5.78566406,8.29202344 5.18283984,8.4375 4.5703125,8.4375 C3.95778516,8.4375 3.35496094,8.29202344 2.81425781,8.01604688 Z M4.5703125,0.703125 C6.70267969,0.703125 8.4375,2.43794531 8.4375,4.5703125 C8.4375,5.75180859 7.89099609,6.86467969 6.98153906,7.59269531 C6.75249609,6.47131641 5.75838281,5.625 4.5703125,5.625 C3.38224219,5.625 2.38812891,6.47131641 2.15908594,7.59269531 C1.24966406,6.86471484 0.703125,5.75184375 0.703125,4.5703125 C0.703125,2.43794531 2.43794531,0.703125 4.5703125,0.703125 Z" id="Shape" fill="#FFFFFF"></path>
                    <path d="M15.1875,12.7265625 C15.1875,11.7573047 14.3989453,10.96875 13.4296875,10.96875 C12.4604297,10.96875 11.671875,11.7573047 11.671875,12.7265625 C11.671875,13.6958203 12.4604297,14.484375 13.4296875,14.484375 C14.3989453,14.484375 15.1875,13.6958203 15.1875,12.7265625 Z M13.4296875,13.78125 C12.8481328,13.78125 12.375,13.3081172 12.375,12.7265625 C12.375,12.1450078 12.8481328,11.671875 13.4296875,11.671875 C14.0112422,11.671875 14.484375,12.1450078 14.484375,12.7265625 C14.484375,13.3081172 14.0112422,13.78125 13.4296875,13.78125 Z" id="Shape" fill="#FFFFFF"></path>
                    <path d="M13.4296875,8.859375 C10.909582,8.859375 8.859375,10.9096172 8.859375,13.4296875 C8.859375,15.9205078 10.8784687,18 13.4296875,18 C15.9804844,18 18,15.9204727 18,13.4296875 C18,10.9096172 15.949793,8.859375 13.4296875,8.859375 Z M11.6736328,16.8754219 C11.7105117,15.9384727 12.4838438,15.1875 13.4296875,15.1875 C14.3755313,15.1875 15.1488633,15.9384727 15.1857422,16.8754219 C14.6450391,17.1513984 14.0422148,17.296875 13.4296875,17.296875 C12.8171602,17.296875 12.2143359,17.1513984 11.6736328,16.8754219 Z M15.8409141,16.4520703 C15.6118711,15.3306914 14.6177578,14.484375 13.4296875,14.484375 C12.2416172,14.484375 11.2475039,15.3306914 11.0184609,16.4520703 C10.1090391,15.7240898 9.5625,14.6112187 9.5625,13.4296875 C9.5625,11.2973203 11.2973203,9.5625 13.4296875,9.5625 C15.5620547,9.5625 17.296875,11.2973203 17.296875,13.4296875 C17.296875,14.6111836 16.7503711,15.7240547 15.8409141,16.4520703 Z" id="Shape" fill="#FFFFFF"></path>
                    <path d="M8.296875,16.3828125 C6.93987891,16.3828125 5.8359375,15.2788359 5.8359375,13.921875 L5.8359375,13.5703125 L6.1875,13.5703125 C6.32067188,13.5703125 6.44238281,13.4950781 6.5019375,13.3759687 C6.56149219,13.2568594 6.548625,13.1143359 6.46875,13.0078125 L4.359375,10.1953125 C4.29296484,10.1067891 4.18876172,10.0546875 4.078125,10.0546875 C3.96748828,10.0546875 3.86328516,10.1067891 3.796875,10.1953125 L1.6875,13.0078125 C1.607625,13.1143359 1.59472266,13.2568594 1.6543125,13.3759687 C1.71390234,13.4950781 1.83557813,13.5703125 1.96875,13.5703125 L2.3203125,13.5703125 L2.3203125,13.921875 C2.3203125,15.6665391 3.73971094,17.0859375 5.484375,17.0859375 L8.296875,17.0859375 C8.49100781,17.0859375 8.6484375,16.928543 8.6484375,16.734375 C8.6484375,16.540207 8.49100781,16.3828125 8.296875,16.3828125 Z M5.484375,16.3828125 C4.12737891,16.3828125 3.0234375,15.2788359 3.0234375,13.921875 L3.0234375,13.21875 C3.0234375,13.024582 2.86600781,12.8671875 2.671875,12.8671875 L4.078125,10.9921992 L5.484375,12.8671875 C5.29024219,12.8671875 5.1328125,13.024582 5.1328125,13.21875 L5.1328125,13.921875 C5.1328125,14.9147578 5.59248047,15.8022773 6.31023047,16.3828125 L5.484375,16.3828125 Z" id="Shape" fill="#EAB73B"></path>
                    <path d="M9.703125,1.6171875 C11.0601211,1.6171875 12.1640625,2.72116406 12.1640625,4.078125 L12.1640625,4.4296875 L11.8125,4.4296875 C11.6793281,4.4296875 11.5576172,4.50492187 11.4980625,4.62403125 C11.4385078,4.74314062 11.451375,4.88566406 11.53125,4.9921875 L13.640625,7.8046875 C13.7070352,7.89321094 13.8112383,7.9453125 13.921875,7.9453125 C14.0325117,7.9453125 14.1367148,7.89321094 14.203125,7.8046875 L16.3125,4.9921875 C16.392375,4.88566406 16.4052773,4.74314062 16.3456875,4.62403125 C16.2860977,4.50492187 16.1644219,4.4296875 16.03125,4.4296875 L15.6796875,4.4296875 L15.6796875,4.078125 C15.6796875,3.98334375 15.6754336,3.88761328 15.6670312,3.79357031 C15.6497695,3.60017578 15.4790156,3.45744141 15.2855859,3.47466797 C15.0921914,3.49192969 14.9494219,3.66271875 14.9667187,3.85611328 C14.9732578,3.92941406 14.9765625,4.00412109 14.9765625,4.07808984 L14.9765625,4.78121484 C14.9765625,4.97538281 15.1339922,5.13277734 15.328125,5.13277734 L13.921875,7.00776563 L12.515625,5.1328125 C12.7097578,5.1328125 12.8671875,4.97541797 12.8671875,4.78125 L12.8671875,4.078125 C12.8671875,3.08524219 12.4075195,2.19772266 11.6897695,1.6171875 L12.515625,1.6171875 C12.7967695,1.6171875 13.0723242,1.66412109 13.3345898,1.7566875 C13.5178242,1.82119922 13.7184961,1.72522266 13.7831133,1.54212891 C13.8477305,1.35903516 13.7516836,1.15822266 13.5685898,1.09360547 C13.2309492,0.974460937 12.8767148,0.9140625 12.515625,0.9140625 L9.703125,0.9140625 C9.50899219,0.9140625 9.3515625,1.07145703 9.3515625,1.265625 C9.3515625,1.45979297 9.50899219,1.6171875 9.703125,1.6171875 L9.703125,1.6171875 Z" id="Path" fill="#EAB73B"></path>
                    <circle id="Oval" fill="#EAB73B" cx="14.7304688" cy="2.35546875" r="1"></circle>
                </g>
            </g>
        </g>
    </g>
</svg>