<?xml version="1.0" encoding="UTF-8"?>
<svg width="32px" height="32px" viewBox="0 0 32 32" version="1.1" xmlns="http://www.w3.org/2000/svg" xmlns:xlink="http://www.w3.org/1999/xlink">
    <title>icono4SVG</title>
    <g id="Page-1" stroke="none" stroke-width="1" fill="none" fill-rule="evenodd">
        <g id="Group-15">
            <circle id="Oval-Copy-7" fill="#0A54D0" style="mix-blend-mode: multiply;" cx="16" cy="16" r="16"></circle>
            <g id="Group" transform="translate(8.000000, 7.000000)" fill-rule="nonzero">
                <g id="location-(2)">
                    <path d="M11.122557,12.5051439 C11.1598859,12.4449649 11.1972148,12.3859062 11.2345437,12.3246068 C12.9133745,9.57173531 13.7582034,7.16361297 13.7460837,5.1679412 C13.7305627,2.30962465 11.3869379,0.000484418304 8.50096466,7.61571446e-08 C5.61499148,-0.000484113627 3.27057673,2.30786947 3.25407795,5.16618064 C3.24179658,7.16361297 4.08678707,9.57205541 5.76561787,12.3246068 C5.80294677,12.3859062 5.84027567,12.4449649 5.87760456,12.5051439 C2.34315589,12.9377609 0,14.1888769 0,15.6743072 C0,17.5392176 3.73288973,19.0000001 8.5,19.0000001 C13.2671103,19.0000001 17,17.5392176 17,15.6743072 C17,14.1888769 14.6568441,12.9377609 11.122557,12.5051439 Z M3.8196673,5.1679412 C3.81012731,3.50530331 4.70034204,1.96493658 6.15267728,1.13106017 C7.60501251,0.297183767 9.39701709,0.297520802 10.8490325,1.13194345 C12.3010478,1.96636609 13.1906718,3.50706757 13.1804943,5.16970176 C13.2047338,9.14824124 9.44922053,14.0552346 8.5,15.2319271 C7.55077947,14.0552346 3.79510456,9.14808119 3.8196673,5.1679412 L3.8196673,5.1679412 Z M8.5,18.4398227 C3.75373574,18.4398227 0.565589354,17.00977 0.565589354,15.6743072 C0.565589354,14.4899323 2.92959125,13.3879834 6.21081749,13.0305903 C6.8454232,14.0119722 7.53788194,14.9554531 8.28459125,15.8561247 C8.33826146,15.9187887 8.41703312,15.9549146 8.5,15.9549146 C8.58296688,15.9549146 8.66173854,15.9187887 8.71540875,15.8561247 C9.46217336,14.9554574 10.1546861,14.0119764 10.7893441,13.0305903 C14.0697624,13.3879834 16.4345722,14.4892921 16.4345722,15.6743072 C16.4344106,17.00977 13.2462643,18.4398227 8.5,18.4398227 L8.5,18.4398227 Z" id="Shape" fill="#FFFFFF"></path>
                    <path d="M6.19455561,16.8363031 C4.9576786,16.6863433 3.96480051,16.4223298 3.39971686,16.0932934 C3.31483898,16.0418962 3.20728718,16.0378837 3.1184047,16.0827983 C3.02952222,16.1277129 2.97314351,16.2145637 2.97094071,16.309965 C2.9687379,16.4053662 3.02105388,16.4944689 3.10777821,16.5430217 C3.73895817,16.9105286 4.81019623,17.2007927 6.12384052,17.3599552 C6.13567044,17.3614028 6.14758844,17.3621084 6.1595166,17.362069 C6.30610858,17.3613943 6.42709574,17.2532735 6.43633148,17.1146902 C6.44556722,16.976107 6.33989451,16.8544326 6.19455561,16.8363031 L6.19455561,16.8363031 Z" id="Path" fill="#FFFFFF"></path>
                    <path d="M8.94877909,17.0412231 C8.54859649,17.0488962 8.13184216,17.047115 7.7250965,17.0346462 C7.62251344,17.0314887 7.52570568,17.0742738 7.47113978,17.1468847 C7.41657387,17.2194956 7.41253968,17.310901 7.46055684,17.3866693 C7.508574,17.4624377 7.60134757,17.511058 7.70393063,17.5142154 C7.9562803,17.5218885 8.2125678,17.5258621 8.46655823,17.5258621 C8.63358812,17.5258621 8.79881316,17.5242178 8.96223336,17.5209294 C9.12076648,17.5178622 9.24630724,17.4080546 9.24264011,17.275664 C9.24184754,17.2117735 9.21020335,17.1508558 9.15488063,17.1067196 C9.09955791,17.0625834 9.0252421,17.0389668 8.94877909,17.0412231 L8.94877909,17.0412231 Z" id="Path" fill="#FFFFFF"></path>
                    <path d="M10.8932039,5.15916132 C10.893025,3.84750597 9.82143903,2.78433483 8.4997301,2.78448276 C7.17802118,2.78463069 6.10667687,3.84804167 6.10679612,5.15969702 C6.10691536,6.47135238 7.178453,7.5345715 8.50016193,7.53448276 C9.82132607,7.53288829 10.8918654,6.47027633 10.8932039,5.15916132 L10.8932039,5.15916132 Z M6.67376096,5.15916132 C6.67393983,4.1581824 7.49172658,3.34685596 8.50037781,3.34697429 C9.50902905,3.34709263 10.3266225,4.15861093 10.3265629,5.15958987 C10.3265033,6.16056881 9.50881317,6.97199121 8.50016193,6.97199121 C7.49178621,6.97092797 6.67465354,6.15986702 6.67376096,5.15916132 Z" id="Shape" fill="#EAB73B"></path>
                </g>
            </g>
        </g>
    </g>
</svg>