<?xml version="1.0" encoding="UTF-8"?>
<svg width="32px" height="32px" viewBox="0 0 32 32" version="1.1" xmlns="http://www.w3.org/2000/svg" xmlns:xlink="http://www.w3.org/1999/xlink">
    <title>icono2SVG</title>
    <g id="Page-1" stroke="none" stroke-width="1" fill="none" fill-rule="evenodd">
        <g id="Group-33">
            <circle id="Oval-Copy-7" fill="#0A54D0" style="mix-blend-mode: multiply;" cx="16" cy="16" r="16"></circle>
            <g id="Group" transform="translate(7.000000, 6.000000)" fill-rule="nonzero">
                <g id="mobile-payment-(1)">
                    <path d="M9.71032867,18.480882 L7.69109324,18.480882 C7.47223914,18.480882 7.29482284,18.6689224 7.29482284,18.900882 C7.29482284,19.1328416 7.47223914,19.320882 7.69109324,19.320882 L9.71032867,19.320882 C9.92918277,19.320882 10.1065991,19.1328416 10.1065991,18.900882 C10.1065991,18.6689224 9.92918277,18.480882 9.71032867,18.480882 L9.71032867,18.480882 Z" id="Path" fill="#EAB73B"></path>
                    <path d="M16.6037296,6.72 C15.8047296,6.72 15.1140699,6.957006 14.6065268,7.405314 C14.5597273,7.446684 14.5119371,7.492506 14.4638695,7.542528 L14.4638695,1.092 C14.4622154,0.489632701 14.0019005,0.0017530905 13.4335664,0 L3.92307692,0 C3.35474281,0.0017530905 2.89442794,0.489632701 2.89277389,1.092 L2.89277389,2.2092 L2.84367599,2.157162 C2.19367932,1.468242 1.1398265,1.468242 0.489829837,2.157162 C-0.16016683,2.846082 -0.16016683,3.963042 0.489829837,4.651962 L2.20465035,6.46947 C1.63997353,6.644012 1.20408629,7.12138289 1.05798185,7.72526763 C0.911877413,8.32915237 1.077238,8.96993309 1.49298834,9.41094 L2.46844755,10.444812 C1.83651948,10.526314 1.30383692,10.9827837 1.09630842,11.6206341 C0.888779918,12.2584844 1.04277631,12.9659277 1.49298834,13.44294 L2.15135198,14.140854 C1.51942391,14.222356 0.986741353,14.6788257 0.77921285,15.3166761 C0.571684347,15.9545264 0.725680739,16.6619697 1.17589277,17.138982 L2.89277389,18.9588 L2.89277389,19.908 C2.89340722,20.5108167 3.35431881,20.9993287 3.92307692,21 L11.5314685,21 C11.7503226,21 11.9277389,20.8119596 11.9277389,20.58 L11.9277389,16.548 C11.9293508,15.8345348 12.246126,15.1630458 12.783683,14.7336 L14.3053613,13.524 C14.4046339,13.4442307 14.4632231,13.3200354 14.4638695,13.188 L14.4638695,9.828 C14.4638695,8.155266 15.4272028,7.68873 16.2074592,7.5852 L16.2074592,20.58 C16.2074592,20.8119596 16.3848755,21 16.6037296,21 C16.8225837,21 17,20.8119596 17,20.58 L17,7.14 C17,6.90804041 16.8225837,6.72 16.6037296,6.72 L16.6037296,6.72 Z M3.92307692,0.84 L13.4335664,0.84 C13.5648246,0.84013891 13.6711976,0.952881822 13.6713287,1.092 L13.6713287,2.350152 L3.68531469,2.350152 L3.68531469,1.092 C3.68544575,0.952881822 3.79181879,0.84013891 3.92307692,0.84 Z M0.79472028,3.40452 C0.786794872,2.590896 1.74620513,2.17035 2.2832704,2.751042 L2.89277389,3.397086 L2.89277389,6.010956 L1.05011655,4.057956 C0.886056063,3.88504175 0.794089652,3.64974402 0.79472028,3.40452 L0.79472028,3.40452 Z M2.05331469,7.510272 C2.37786014,7.151802 2.96172494,7.151802 3.28623077,7.510272 L5.07955245,9.410982 C5.86706061,10.307388 4.68914685,11.552688 3.84663636,10.717728 L2.05331469,8.817018 C1.71343933,8.45591344 1.71343933,7.87137656 2.05331469,7.510272 L2.05331469,7.510272 Z M5.63995804,8.817018 L5.20925175,8.360478 C5.37831208,6.63810632 6.67648416,5.28499067 8.30414068,5.13460162 C9.9317972,4.98421256 11.4312967,6.07883438 11.8790015,7.7442194 C12.3267062,9.40960441 11.5967369,11.1775032 10.1387284,11.9589538 C8.68071985,12.7404043 6.90461431,12.3156893 5.9044289,10.946418 C6.28008603,10.2547612 6.17169864,9.38207484 5.63995804,8.817018 L5.63995804,8.817018 Z M2.05331469,11.542272 C2.37786014,11.183802 2.96172494,11.183802 3.28623077,11.542272 L5.07955245,13.442982 C5.86706061,14.339388 4.68914685,15.584688 3.84663636,14.749728 L2.05331469,12.849018 C1.71343933,12.4879134 1.71343933,11.9033766 2.05331469,11.542272 L2.05331469,11.542272 Z M1.73629837,15.238272 C2.06084382,14.879802 2.64470862,14.879802 2.96921445,15.238272 L4.76253613,17.138982 C5.55004429,18.035388 4.37213054,19.280688 3.52962005,18.445728 L1.73629837,16.545018 C1.39642302,16.1839134 1.39642302,15.5993766 1.73629837,15.238272 Z M3.68531469,19.908 L3.68531469,19.488 C3.83512533,19.5335297 3.9902104,19.5566156 4.14605828,19.556586 C4.61215651,19.5567749 5.05693081,19.349613 5.37201179,18.9855753 C5.68709277,18.6215376 5.84354943,18.1340504 5.80326107,17.64189 L11.1351981,17.64189 L11.1351981,20.16 L3.92307692,20.16 C3.79181879,20.1598611 3.68544575,20.0471182 3.68531469,19.908 Z M12.3081585,14.0616 C11.5714903,14.6500856 11.1373866,15.5702833 11.1351981,16.548 L11.1351981,16.80168 L5.52286014,16.80168 C5.46400675,16.7096351 5.39706903,16.6236982 5.32294172,16.545018 L4.66449883,15.847146 C5.29642691,15.765644 5.82910946,15.3091743 6.03663797,14.6713239 C6.24416647,14.0334736 6.09017008,13.3260303 5.63995804,12.849018 L4.66449883,11.815146 C4.90830933,11.7844079 5.14254451,11.6962534 5.35004662,11.55714 C6.58295907,13.1501892 8.68636784,13.6380135 10.4343368,12.7362928 C12.1823058,11.8345721 13.1177718,9.77909064 12.6955144,7.76785079 C12.273257,5.75661094 10.603689,4.31551666 8.65988977,4.28448528 C6.71609058,4.25345389 5.00632956,5.64059957 4.52711189,7.637448 C4.52711189,7.637448 3.74150583,6.8124 3.68531469,6.7662 L3.68531469,3.190152 L13.6713287,3.190152 L13.6713287,12.978 L12.3081585,14.0616 Z" id="Shape" fill="#FFFFFF"></path>
                    <path d="M8.24242424,9.156 L8.91608392,9.156 C9.22554687,9.16755809 9.47078477,9.4368021 9.47078477,9.765 C9.47078477,10.0931979 9.22554687,10.3624419 8.91608392,10.374 L7.91712587,10.374 C7.77870862,10.37736 7.67936364,10.234896 7.69965268,10.094826 C7.70357017,9.86286641 7.52932962,9.67146008 7.31047552,9.667308 C7.09162143,9.66315592 6.91102938,9.84783041 6.90711189,10.07979 L6.90635897,10.123302 C6.90146724,10.4107671 7.00579246,10.6882531 7.19587848,10.8933711 C7.3859645,11.0984891 7.64585817,11.2140242 7.91712587,11.214 L8.2027972,11.214 L8.2027972,11.466 C8.2027972,11.6979596 8.3802135,11.886 8.5990676,11.886 C8.8179217,11.886 8.995338,11.6979596 8.995338,11.466 L8.995338,11.211354 C9.72554536,11.1549635 10.2843667,10.4991338 10.2631347,9.72347463 C10.2419027,8.94781545 9.64814763,8.32742666 8.91608392,8.316 L8.24242424,8.316 C7.93602851,8.316 7.68764569,8.05274343 7.68764569,7.728 C7.68764569,7.40325657 7.93602851,7.14 8.24242424,7.14 L9.22561072,7.14 C9.36517716,7.152348 9.43782673,7.232764 9.44355944,7.381248 C9.43414871,7.61299883 9.60377644,7.80895574 9.82243357,7.81893 C10.0410907,7.82890426 10.2259762,7.64911883 10.2353869,7.417368 C10.2472287,7.12553298 10.1461266,6.84122722 9.95548931,6.63027755 C9.76485206,6.41932788 9.50121185,6.30002798 9.22561072,6.3 L8.995338,6.3 L8.995338,6.048 C8.995338,5.81604041 8.8179217,5.628 8.5990676,5.628 C8.3802135,5.628 8.2027972,5.81604041 8.2027972,6.048 L8.2027972,6.30105 C7.46700448,6.32422341 6.88500581,6.96909889 6.89583388,7.74921242 C6.90666195,8.52932595 7.50630678,9.15577697 8.24242424,9.156 Z" id="Path" fill="#EAB73B"></path>
                </g>
            </g>
        </g>
    </g>
</svg>