<?xml version="1.0" encoding="UTF-8"?>
<svg width="32px" height="32px" viewBox="0 0 32 32" version="1.1" xmlns="http://www.w3.org/2000/svg" xmlns:xlink="http://www.w3.org/1999/xlink">
    <title>icono3SVG</title>
    <g id="Page-1" stroke="none" stroke-width="1" fill="none" fill-rule="evenodd">
        <g id="icono3">
            <circle id="Oval" fill="#0A54D0" style="mix-blend-mode: multiply;" cx="16" cy="16" r="16"></circle>
            <g id="002-borrow" transform="translate(7.000000, 6.000000)">
                <g id="001-chat" fill="#FFFFFF" fill-rule="nonzero">
                    <path d="M3.28909091,3.51471094 L3.28909091,2.25905859 C3.28909091,1.63701562 3.52987013,1.07198437 3.91862338,0.663878906 C4.30737662,0.254625 4.84414286,-1.16573418e-15 5.43385714,-1.16573418e-15 L12.8919351,-1.16573418e-15 C13.4827792,-1.16573418e-15 14.0184156,0.254625 14.4071688,0.663919922 C14.7959221,1.07198437 15.0377922,1.63705664 15.0377922,2.25909961 L15.0377922,4.54719727 C15.0377922,4.71696094 14.9063766,4.85530664 14.7451169,4.85530664 C14.5838571,4.85530664 14.4535325,4.71696094 14.4535325,4.54719727 L14.4535325,2.25905859 C14.4535325,1.80682031 14.2768442,1.39633594 13.9941039,1.09872656 C13.7113636,0.799927734 13.3215195,0.615029297 12.8919351,0.615029297 L12.7450519,0.615029297 L12.7450519,1.50330469 C12.7450519,2.0776875 12.299961,2.54739844 11.7532597,2.54739844 L6.57249351,2.54739844 C6.02583117,2.54739844 5.58074026,2.0776875 5.58074026,1.50330469 L5.58074026,0.615029297 L5.43385714,0.615029297 C5.00532468,0.615029297 4.61438961,0.799927734 4.33164935,1.09872656 C4.04890909,1.39633594 3.87331169,1.80682031 3.87331169,2.25905859 L3.87331169,3.51471094 L7.76855844,3.51471094 C8.04358442,3.51471094 8.29316883,3.63332812 8.4742987,3.82396875 C8.6542987,4.01465039 8.76697403,4.2774375 8.76697403,4.56573633 L8.76697403,5.72028516 C8.76697403,5.89119727 8.63551948,6.02839453 8.4742987,6.02839453 C8.31303896,6.02839453 8.18271429,5.89119727 8.18271429,5.72028516 L8.18271429,4.56573633 C8.18271429,4.44716016 8.13522078,4.33785352 8.06014286,4.25881641 C7.98506494,4.17973828 7.88236364,4.13092969 7.7685974,4.13092969 L1.00297403,4.13092969 C0.889246753,4.13092969 0.786506494,4.1797793 0.711428571,4.25881641 C0.636350649,4.33789453 0.588857143,4.44720117 0.588857143,4.56573633 L0.588857143,8.26883203 C0.588857143,8.38855664 0.636350649,8.49671484 0.711428571,8.57575195 C0.786545455,8.65478906 0.889246753,8.70478711 1.00297403,8.70478711 L4.99211688,8.70478711 C5.15333766,8.70478711 5.28366234,8.84202539 5.28366234,9.01174805 L5.28366234,10.1232305 L6.54377922,8.79551367 C6.59676623,8.73973242 6.67079221,8.70478711 6.75249351,8.70478711 L7.76855844,8.70478711 C7.88232468,8.70478711 7.98502597,8.65474805 8.0601039,8.57575195 C8.13522078,8.49667383 8.18267532,8.38855664 8.18267532,8.26883203 L8.18267532,7.11432422 C8.18267532,6.94456055 8.313,6.80621484 8.47425974,6.80621484 C8.63548052,6.80621484 8.76693506,6.94456055 8.76693506,7.11432422 L8.76693506,8.26883203 C8.76693506,8.55832031 8.65425974,8.82110742 8.47425974,9.01178906 C8.29312987,9.20128125 8.04354545,9.31989844 7.76851948,9.31989844 L6.87284416,9.31989844 L5.19857143,11.0824629 C5.08480519,11.203377 4.89927273,11.203377 4.78554545,11.0824629 C4.72811688,11.0231953 4.6994026,10.9441172 4.6994026,10.8650391 L4.6994026,9.31989844 L3.87331169,9.31989844 L3.87331169,12.3823301 C3.87331169,12.5520937 3.7418961,12.6904395 3.58063636,12.6904395 C3.41937662,12.6904395 3.28909091,12.5520937 3.28909091,12.3823301 L3.28909091,9.31989844 L1.00297403,9.31989844 C0.727987013,9.31989844 0.478402597,9.20128125 0.297272727,9.01178906 C0.117233766,8.82110742 0.0045974026,8.5582793 0.0045974026,8.26883203 L0.0045974026,4.56573633 C0.0045974026,4.2774375 0.117233766,4.01465039 0.297272727,3.82396875 C0.478402597,3.63332812 0.727987013,3.51471094 1.00297403,3.51471094 L3.28909091,3.51471094 Z M9.81728571,10.8592559 C9.81728571,11.0290195 9.68696104,11.1673652 9.5257013,11.1673652 C9.36448052,11.1673652 9.23302597,11.0290195 9.23302597,10.8592559 L9.23302597,9.70478906 C9.23302597,9.41525977 9.3457013,9.15251367 9.52679221,8.96187305 C9.70683117,8.77233984 9.95641558,8.65372266 10.2314026,8.65372266 L14.4535325,8.65372266 L14.4535325,5.94123633 C14.4535325,5.77032422 14.5838571,5.63312695 14.7451169,5.63312695 C14.9063377,5.63312695 15.0377922,5.77032422 15.0377922,5.94123633 L15.0377922,8.65372266 L16.997026,8.65372266 C17.272013,8.65372266 17.5215974,8.77233984 17.7027273,8.96187305 C17.8827662,9.15251367 17.9954026,9.41530078 17.9954026,9.70478906 L17.9954026,13.4066953 C17.9954026,13.6961836 17.8827662,13.9589707 17.7027273,14.1496113 C17.5215974,14.340252 17.272013,14.4577207 16.997026,14.4577207 L15.0377922,14.4577207 L15.0377922,17.4887754 L15.0377922,18.7421309 C15.0377922,19.3630254 14.7959221,19.9280566 14.4071688,20.3373516 C14.0184156,20.7465234 13.4827792,21 12.8919351,21 L5.43385714,21 C4.8441039,21 4.30737662,20.7465234 3.91862338,20.3373105 C3.52987013,19.9280156 3.28909091,19.3629844 3.28909091,18.7420898 L3.28909091,17.4887344 L3.28909091,13.7763281 C3.28909091,13.6066055 3.41941558,13.4682187 3.58063636,13.4682187 C3.7418961,13.4682187 3.87331169,13.6066055 3.87331169,13.7763281 L3.87331169,17.180625 L14.4535325,17.180625 L14.4535325,14.4576387 L13.6307532,14.4576387 L13.6307532,16.0040098 C13.6307532,16.1737734 13.4992987,16.3109297 13.3380779,16.3109297 C13.2574675,16.3109297 13.1834805,16.2760254 13.1304545,16.2202441 L11.4572727,14.4575977 L10.2314026,14.4575977 C9.95641558,14.4575977 9.70679221,14.3401699 9.52679221,14.1494883 C9.3457013,13.9588477 9.23302597,13.6960195 9.23302597,13.4065723 L9.23302597,12.2531719 C9.23302597,12.0822598 9.36444156,11.9450625 9.5257013,11.9450625 C9.68696104,11.9450625 9.81728571,12.0822598 9.81728571,12.2531719 L9.81728571,13.4065723 C9.81728571,13.5263379 9.86477922,13.6356035 9.93985714,13.7146816 C10.0149351,13.7937598 10.1176364,13.8425684 10.2314026,13.8425684 L11.5776623,13.8425684 C11.6527792,13.8425684 11.7278571,13.8727969 11.7841948,13.9332539 L13.0465325,15.2610117 L13.0465325,14.1506777 C13.0465325,13.9809141 13.1768571,13.8425684 13.3380779,13.8425684 L16.996987,13.8425684 C17.1107143,13.8425684 17.2134545,13.7937598 17.2896623,13.7146816 C17.3647403,13.6356035 17.4111429,13.5263379 17.4111429,13.4065723 L17.4111429,9.70466602 C17.4111429,9.58490039 17.3647403,9.47674219 17.2896623,9.39774609 C17.2134545,9.31751953 17.1107532,9.26871094 16.996987,9.26871094 L10.2314026,9.26871094 C10.1176364,9.26871094 10.0149351,9.31756055 9.93985714,9.39774609 C9.86474026,9.4767832 9.81728571,9.58494141 9.81728571,9.70466602 L9.81728571,10.8592559 Z M7.86907792,19.3978887 C7.70781818,19.3978887 7.57753247,19.2606914 7.57753247,19.0909277 C7.57753247,18.9211641 7.70785714,18.7828184 7.86907792,18.7828184 L10.4567143,18.7828184 C10.6179351,18.7828184 10.7482597,18.9211641 10.7482597,19.0909277 C10.7482597,19.2607324 10.6179351,19.3978887 10.4567143,19.3978887 L7.86907792,19.3978887 Z M12.1607922,0.615029297 L6.165,0.615029297 L6.165,1.50330469 C6.165,1.73816016 6.3494026,1.93236914 6.57249351,1.93236914 L11.7532597,1.93236914 C11.9774416,1.93236914 12.1607922,1.73816016 12.1607922,1.50330469 L12.1607922,0.615029297 Z M14.4535714,17.7956953 L3.87335065,17.7956953 L3.87335065,18.7420898 C3.87335065,19.1931797 4.04894805,19.6036641 4.33168831,19.9024629 C4.61438961,20.2000723 5.00536364,20.3849707 5.4338961,20.3849707 L12.891974,20.3849707 C13.3215584,20.3849707 13.7114416,20.2000723 13.9941429,19.9024629 C14.2768831,19.6036641 14.4535714,19.1931797 14.4535714,18.7420898 L14.4535714,17.7956953 Z" id="Shape"></path>
                </g>
                <path d="M11.2540909,11.0685176 C11.0928312,11.0685176 10.9625455,10.9313203 10.9625455,10.7615977 C10.9625455,10.591834 11.0928701,10.4534883 11.2540909,10.4534883 L15.9743377,10.4534883 C16.1355974,10.4534883 16.267013,10.591834 16.267013,10.7615977 C16.267013,10.9313613 16.1355974,11.0685176 15.9743377,11.0685176 L11.2540909,11.0685176 Z" id="Path" fill="#EAB73B"></path>
                <path d="M11.2540909,12.6579141 C11.0928312,12.6579141 10.9625455,12.5206758 10.9625455,12.3509941 C10.9625455,12.1811895 11.0928701,12.0428027 11.2540909,12.0428027 L13.6142338,12.0428027 C13.7754545,12.0428027 13.9069091,12.1811895 13.9069091,12.3509941 C13.9069091,12.5207168 13.7754545,12.6579141 13.6142338,12.6579141 L11.2540909,12.6579141 Z" id="Path" fill="#EAB73B"></path>
                <path d="M2.02566234,5.93077734 C1.8644026,5.93077734 1.73298701,5.79239063 1.73298701,5.62266797 C1.73298701,5.4529043 1.8644026,5.31574805 2.02566234,5.31574805 L6.74590909,5.31574805 C6.90716883,5.31574805 7.03858442,5.45294531 7.03858442,5.62266797 C7.03858442,5.79239063 6.90716883,5.93077734 6.74590909,5.93077734 L2.02566234,5.93077734 Z" id="Path" fill="#EAB73B"></path>
                <path d="M2.02566234,7.5200918 C1.8644026,7.5200918 1.73298701,7.38174609 1.73298701,7.21198242 C1.73298701,7.04221875 1.8644026,6.9050625 2.02566234,6.9050625 L6.74590909,6.9050625 C6.90716883,6.9050625 7.03858442,7.04225977 7.03858442,7.21198242 C7.03858442,7.38174609 6.90716883,7.5200918 6.74590909,7.5200918 L2.02566234,7.5200918 Z" id="Path" fill="#EAB73B"></path>
            </g>
        </g>
    </g>
</svg>