<?xml version="1.0" encoding="UTF-8"?>
<svg width="32px" height="32px" viewBox="0 0 32 32" version="1.1" xmlns="http://www.w3.org/2000/svg" xmlns:xlink="http://www.w3.org/1999/xlink">
    <title>icono1SVG</title>
    <g id="Page-1" stroke="none" stroke-width="1" fill="none" fill-rule="evenodd">
        <g id="Group-15">
            <circle id="Oval-Copy-7" fill="#0A54D0" style="mix-blend-mode: multiply;" cx="16" cy="16" r="16"></circle>
            <g id="Group" transform="translate(7.000000, 8.000000)" fill-rule="nonzero">
                <g id="chat-(1)">
                    <path d="M9.2244898,2.85714286 L3.34693878,2.85714286 C3.07657143,2.85714286 2.85714286,3.11314286 2.85714286,3.42857143 C2.85714286,3.744 3.07657143,4 3.34693878,4 L9.2244898,4 C9.49485714,4 9.71428571,3.744 9.71428571,3.42857143 C9.71428571,3.11314286 9.49485714,2.85714286 9.2244898,2.85714286 Z" id="Path" fill="#EAB73B"></path>
                    <path d="M7.48571429,5.14285714 L3.37142857,5.14285714 C3.08754286,5.14285714 2.85714286,5.39885714 2.85714286,5.71428571 C2.85714286,6.02971429 3.08754286,6.28571429 3.37142857,6.28571429 L7.48571429,6.28571429 C7.7696,6.28571429 8,6.02971429 8,5.71428571 C8,5.39885714 7.7696,5.14285714 7.48571429,5.14285714 Z" id="Path" fill="#EAB73B"></path>
                    <path d="M11.1208791,0 L2.02197802,0 C0.906857143,0 0,0.902125714 0,2.01142857 L0,12.0685714 C0,12.26368 0.113230769,12.4416914 0.291164835,12.52416 C0.358901099,12.5553371 0.432703297,12.5714286 0.505494505,12.5714286 C0.621758242,12.5714286 0.737010989,12.5312 0.829010989,12.4547657 L3.72145055,10.0571429 L11.1208791,10.0571429 C12.236,10.0571429 13.1428571,9.15501714 13.1428571,8.04571429 L13.1428571,2.01142857 C13.1428571,0.902125714 12.236,0 11.1208791,0 Z M12.1318681,8.04571429 C12.1318681,8.59986286 11.6789451,9.05142857 11.1208791,9.05142857 L3.53846154,9.05142857 C3.42017582,9.05142857 3.30593407,9.09266286 3.21494505,9.16809143 L1.01098901,10.9954743 L1.01098901,2.01142857 C1.01098901,1.45728 1.46391209,1.00571429 2.02197802,1.00571429 L11.1208791,1.00571429 C11.6789451,1.00571429 12.1318681,1.45728 12.1318681,2.01142857 L12.1318681,8.04571429 Z" id="Shape" fill="#FFFFFF"></path>
                    <path d="M14,4 C13.724,4 13.5,4.224 13.5,4.5 C13.5,4.776 13.724,5 14,5 C14.552,5 15,5.449 15,6 L15,14.459 L13.312,13.109 C13.224,13.039 13.113,13 13,13 L6,13 C5.448,13 5,12.551 5,12 L5,11.5 C5,11.224 4.776,11 4.5,11 C4.224,11 4,11.224 4,11.5 L4,12 C4,13.103 4.897,14 6,14 L12.824,14 L15.187,15.891 C15.278,15.963 15.389,16 15.5,16 C15.573,16 15.647,15.984 15.717,15.951 C15.89,15.867 16,15.692 16,15.5 L16,6 C16,4.897 15.103,4 14,4 Z" id="Path" fill="#FFFFFF"></path>
                </g>
            </g>
        </g>
    </g>
</svg>