<?xml version="1.0" encoding="UTF-8"?>
<svg width="31px" height="25px" viewBox="0 0 31 25" version="1.1" xmlns="http://www.w3.org/2000/svg" xmlns:xlink="http://www.w3.org/1999/xlink">
    <title>arrow1_bannerSVG</title>
    <defs>
        <filter id="filter-1">
            <feColorMatrix in="SourceGraphic" type="matrix" values="0 0 0 0 1.000000 0 0 0 0 1.000000 0 0 0 0 1.000000 0 0 0 1.000000 0"></feColorMatrix>
        </filter>
    </defs>
    <g id="Page-1" stroke="none" stroke-width="1" fill="none" fill-rule="evenodd">
        <g filter="url(#filter-1)" id="arrow1_banner">
            <g transform="translate(15.500000, 12.500000) scale(1, -1) rotate(-180.000000) translate(-15.500000, -12.500000) translate(0.000000, 0.000000)">
                <path d="M18.9739375,0.344669336 C18.4579167,-0.130962043 17.6396458,-0.112211792 17.1481667,0.387794914 C16.6560417,0.88780162 16.6767083,1.67906223 17.1927292,2.15531862 L27.1011042,11.2498156 L1.29166667,11.2498156 C0.578666667,11.2498156 0,11.8098231 0,12.4998324 C0,13.1898416 0.578666667,13.7498491 1.29166667,13.7498491 L27.0597708,13.7498491 L17.1927292,22.8449711 C16.6760625,23.3212275 16.6560417,24.1124881 17.1481667,24.6124948 C17.4019792,24.8699983 17.7423333,25 18.0833333,25 C18.4036667,25 18.724,24.8856235 18.9739375,24.6549954 L30.2430833,14.2673561 C30.7313333,13.7954747 31,13.1679663 31,12.4998324 C31,11.8316984 30.7313333,11.20419 30.2204792,10.7110584 L18.9739375,0.344669336 Z" id="Path" fill="#000000" fill-rule="nonzero"></path>
            </g>
        </g>
    </g>
</svg>