<?xml version="1.0" encoding="UTF-8"?>
<svg width="10px" height="8px" viewBox="0 0 10 8" version="1.1" xmlns="http://www.w3.org/2000/svg" xmlns:xlink="http://www.w3.org/1999/xlink">
    <title>arrow (1)SVG</title>
    <defs>
        <filter id="filter-1">
            <feColorMatrix in="SourceGraphic" type="matrix" values="0 0 0 0 0.870588 0 0 0 0 0.576471 0 0 0 0 0.007843 0 0 0 1.000000 0"></feColorMatrix>
        </filter>
    </defs>
    <g id="Symbols" stroke="none" stroke-width="1" fill="none" fill-rule="evenodd">
        <g id="arrow-(1)" transform="translate(-119.000000, -463.000000)" filter="url(#filter-1)">
            <g transform="translate(124.000000, 467.000000) scale(1, -1) translate(-124.000000, -467.000000) translate(119.000000, 463.000000)">
                <path d="M6.120625,0.110294187 C5.95416667,-0.0419078538 5.69020833,-0.0359077733 5.53166667,0.124094373 C5.37291667,0.284096518 5.37958333,0.537299914 5.54604167,0.689701958 L8.74229167,3.59994099 L0.416666667,3.59994099 C0.186666667,3.59994099 0,3.77914339 0,3.99994635 C0,4.22074931 0.186666667,4.39995172 0.416666667,4.39995172 L8.72895833,4.39995172 L5.54604167,7.31039075 C5.379375,7.4627928 5.37291667,7.71599619 5.53166667,7.87599834 C5.61354167,7.95839944 5.72333333,8 5.83333333,8 C5.93666667,8 6.04,7.96339951 6.120625,7.88959852 L9.75583333,4.56555394 C9.91333333,4.41455191 10,4.21374922 10,3.99994635 C10,3.78614349 9.91333333,3.58534079 9.74854167,3.42753868 L6.120625,0.110294187 Z" id="Path" fill="#000000" fill-rule="nonzero"></path>
            </g>
        </g>
    </g>
</svg>