<?xml version="1.0" encoding="UTF-8"?>
<svg width="11px" height="11px" viewBox="0 0 11 11" version="1.1" xmlns="http://www.w3.org/2000/svg" xmlns:xlink="http://www.w3.org/1999/xlink">
    <title>clock (5)SVG</title>
    <g id="Symbols" stroke="none" stroke-width="1" fill="none" fill-rule="evenodd">
        <g id="CAMPAÑAS/camp1" transform="translate(-7.000000, -342.000000)" fill="#000000" fill-rule="nonzero">
            <g id="Group" transform="translate(7.000000, 339.000000)">
                <g transform="translate(0.000000, 3.000000)" id="clock-(5)">
                    <g transform="translate(5.500000, 5.500000) scale(1, -1) translate(-5.500000, -5.500000) ">
                        <path d="M5.5,2.62016992 C5.58898828,2.62016992 5.66113281,2.54802539 5.66113281,2.45903711 L5.66113281,2.22253711 C5.66113281,2.13354883 5.58898828,2.0614043 5.5,2.0614043 C5.41101172,2.0614043 5.33886719,2.13354883 5.33886719,2.22253711 L5.33886719,2.45903711 C5.33886719,2.54802539 5.41101172,2.62016992 5.5,2.62016992 Z" id="Path"></path>
                        <path d="M7.92272852,3.07217969 C7.85980078,3.00925195 7.75777148,3.00923047 7.69486523,3.07217969 L7.52763086,3.23939258 C7.46468164,3.30232031 7.46468164,3.40434961 7.52760938,3.46727734 C7.55908398,3.49873047 7.6003125,3.51447852 7.6415625,3.51447852 C7.68279102,3.51447852 7.72404102,3.49875195 7.75549414,3.46729883 L7.92272852,3.30006445 C7.98563477,3.23713672 7.98563477,3.13510742 7.92272852,3.07217969 Z" id="Path"></path>
                        <path d="M8.52345312,5.33888867 C8.43444336,5.33888867 8.36232031,5.4110332 8.36232031,5.50002148 C8.36232031,5.58900977 8.43444336,5.6611543 8.52345312,5.6611543 L8.75995312,5.6611543 C8.84896289,5.6611543 8.92108594,5.58903125 8.92108594,5.50002148 C8.92108594,5.41101172 8.84896289,5.33888867 8.75995312,5.33888867 L8.52345312,5.33888867 Z" id="Path"></path>
                        <path d="M7.74307617,7.52760937 C7.68012695,7.46470312 7.57811914,7.46470312 7.51519141,7.52760937 C7.45226367,7.59055859 7.45226367,7.69256641 7.51519141,7.75549414 L7.6824043,7.92270703 C7.71387891,7.95416016 7.75512891,7.96988672 7.79635742,7.96988672 C7.83758594,7.96988672 7.87883594,7.95416016 7.91031055,7.92270703 C7.97323828,7.85975781 7.97323828,7.75775 7.91031055,7.69482227 L7.74307617,7.52760937 Z" id="Path"></path>
                        <path d="M5.32131445,8.52347461 L5.32131445,8.75997461 C5.32131445,8.84898437 5.39345898,8.92110742 5.48244727,8.92110742 C5.57143555,8.92110742 5.64358008,8.84898437 5.64358008,8.75997461 L5.64358008,8.52347461 C5.64358008,8.43446484 5.57145703,8.3623418 5.48244727,8.3623418 C5.3934375,8.3623418 5.32131445,8.43446484 5.32131445,8.52347461 Z" id="Path"></path>
                        <path d="M3.22697461,7.51519141 L3.05974023,7.6824043 C2.9968125,7.74533203 2.9968125,7.84736133 3.05974023,7.91026758 C3.09119336,7.94174219 3.13244336,7.95746875 3.17367188,7.95746875 C3.21490039,7.95746875 3.25615039,7.94174219 3.28760352,7.91028906 L3.45483789,7.74307617 C3.51776563,7.68014844 3.51776563,7.57811914 3.45483789,7.51521289 C3.39193164,7.45228516 3.28990234,7.45230664 3.22697461,7.51519141 Z" id="Path"></path>
                        <path d="M2.22251563,5.32133594 C2.13352734,5.32133594 2.06138281,5.39348047 2.06138281,5.48246875 C2.06138281,5.57147852 2.13352734,5.64360156 2.22251563,5.64360156 L2.45901563,5.64360156 C2.54800391,5.64360156 2.62014844,5.57147852 2.62014844,5.48246875 C2.62014844,5.39348047 2.54800391,5.32133594 2.45901563,5.32133594 L2.22251563,5.32133594 Z" id="Path"></path>
                        <path d="M3.46727734,3.22699609 L3.30004297,3.05976172 C3.23709375,2.99683398 3.13510742,2.99685547 3.0721582,3.05976172 C3.00923047,3.12268945 3.00925195,3.22471875 3.0721582,3.28764648 L3.23939258,3.45485937 C3.27086719,3.48633398 3.3120957,3.50206055 3.35332422,3.50206055 C3.39455273,3.50206055 3.43580273,3.48633398 3.46727734,3.45485937 C3.53020508,3.39193164 3.53018359,3.28992383 3.46727734,3.22699609 Z" id="Path"></path>
                        <path d="M5.93179297,5.90321875 L7.07953125,6.49339453 C7.15915234,6.53434375 7.25604687,6.50246094 7.29652344,6.42378516 C7.33723633,6.34463672 7.30604102,6.24750586 7.22691406,6.20679297 L6.0795625,5.61681055 C6.08716797,5.57901953 6.09120703,5.53996094 6.09120703,5.49997852 C6.09120703,5.22985547 5.90904102,5.00162695 5.6611543,4.93128711 L5.6611543,3.28887109 C5.6611543,3.19988281 5.58900977,3.12773828 5.50002148,3.12773828 C5.4110332,3.12773828 5.33888867,3.19988281 5.33888867,3.28887109 L5.33888867,4.93128711 C5.14226367,4.98708203 4.987125,5.1422207 4.93133008,5.3388457 L4.13153125,5.3388457 C4.04254297,5.3388457 3.97039844,5.41099023 3.97039844,5.49997852 C3.97039844,5.5889668 4.04254297,5.66111133 4.13153125,5.66111133 L4.93133008,5.66111133 C5.00166992,5.90899805 5.22989844,6.09118555 5.50002148,6.09118555 C5.67026367,6.09120703 5.82383398,6.0187832 5.93179297,5.90321875 L5.93179297,5.90321875 Z M5.5,5.76894141 C5.35171484,5.76894141 5.23105859,5.64830664 5.23105859,5.5 C5.23105859,5.35171484 5.35169336,5.23105859 5.5,5.23105859 C5.64828516,5.23105859 5.76891992,5.35169336 5.76891992,5.5 C5.76894141,5.64830664 5.64828516,5.76894141 5.5,5.76894141 Z" id="Shape"></path>
                        <path d="M9.66029883,5.33856641 C9.7490293,5.33177734 9.81545898,5.25434766 9.80866992,5.1655957 C9.72576172,4.08293359 9.24079492,3.07791602 8.44308008,2.33565234 C7.64119727,1.5895 6.59600391,1.17856836 5.5,1.17856836 C3.11716797,1.17856836 1.17856836,3.11714648 1.17856836,5.5 C1.17856836,7.88285352 3.11716797,9.82143164 5.5,9.82143164 C7.753625,9.82143164 9.63625781,8.08536523 9.80864844,5.83444727 C9.81541602,5.7457168 9.7490293,5.66828711 9.66027734,5.66147656 C9.57191211,5.65483789 9.49411719,5.7210957 9.48730664,5.80984766 C9.32817188,7.88820313 7.58984961,9.49916602 5.5,9.49916602 C3.29484375,9.49916602 1.50083398,7.70515625 1.50083398,5.5 C1.50083398,3.29484375 3.29484375,1.50083398 5.5,1.50083398 C6.51423438,1.50083398 7.48148242,1.88110742 8.22355273,2.57159375 C8.96179883,3.25853516 9.41062891,4.18850781 9.48730664,5.1902168 C9.49411719,5.2789043 9.57124609,5.34550586 9.66029883,5.33856641 Z" id="Path"></path>
                        <path d="M9.38910156,1.61091992 C8.35028906,0.572085937 6.96912305,0 5.5,0 C4.44419336,0 3.4185293,0.300007813 2.5338457,0.867625 C2.45895117,0.915685547 2.4371875,1.01535156 2.48524805,1.09026758 C2.53330859,1.16514063 2.63295312,1.1869043 2.70789062,1.13886523 C3.54051758,0.604634766 4.50602539,0.322265625 5.5,0.322265625 C6.88303516,0.322265625 8.18326953,0.860835937 9.1612168,1.8387832 C10.1391641,2.81673047 10.6777344,4.11696484 10.6777344,5.5 C10.6777344,8.36156836 8.36197656,10.6777344 5.5,10.6777344 C4.98860742,10.6777344 4.48282227,10.6030547 3.99669531,10.4558223 C3.91150977,10.429998 3.82155469,10.478123 3.79577344,10.5633301 C3.7699707,10.6484941 3.8180957,10.7384277 3.90325977,10.764252 C4.41972266,10.9206797 4.95693945,11 5.5,11 C8.53969531,11 11,8.54010352 11,5.5 C11,4.03089844 10.4278926,2.64973242 9.38910156,1.61091992 Z" id="Path"></path>
                        <path d="M3.41077344,10.2385723 C1.53458594,9.41011328 0.322265625,7.55010352 0.322265625,5.5 C0.322265625,3.95080469 1.00785352,2.49556055 2.20322266,1.50736523 C2.27180078,1.45066797 2.28144727,1.34911133 2.22472852,1.28051172 C2.16805273,1.21195508 2.06649609,1.20230859 1.997875,1.25898437 C0.728212891,2.30860352 0,3.85438281 0,5.5 C0,7.67765625 1.28770898,9.65338086 3.28057812,10.5334023 C3.30174023,10.542748 3.32384766,10.5471738 3.34558984,10.5471738 C3.40746484,10.5471738 3.46646094,10.5113379 3.49308008,10.4510742 C3.52902344,10.3696699 3.49217773,10.2745371 3.41077344,10.2385723 Z" id="Path"></path>
                    </g>
                </g>
            </g>
        </g>
    </g>
</svg>