<?xml version="1.0" encoding="UTF-8"?>
<svg width="26px" height="27px" viewBox="0 0 26 27" version="1.1" xmlns="http://www.w3.org/2000/svg" xmlns:xlink="http://www.w3.org/1999/xlink">
    <title>001-twitterSVG</title>
    <defs>
        <filter id="filter-1">
            <feColorMatrix in="SourceGraphic" type="matrix" values="0 0 0 0 0.022376 0 0 0 0 0.476641 0 0 0 0 0.754189 0 0 0 1.000000 0"></feColorMatrix>
        </filter>
    </defs>
    <g id="Page-1" stroke="none" stroke-width="1" fill="none" fill-rule="evenodd">
        <g id="Group-16-Copy" transform="translate(-8.000000, -103.000000)">
            <g id="Group-12" transform="translate(8.000000, 11.000000)">
                <g id="001-twitter" transform="translate(0.000000, 92.957746)" filter="url(#filter-1)">
                    <g id="Group-14">
                        <path d="M20.2926829,8.71068129 C19.3951451,8.75153984 19.4147397,8.74820664 19.3132836,8.75659338 L19.8448393,7.25719198 C19.8448393,7.25719198 18.1856191,7.8600707 17.7649901,7.96791578 C16.6602947,6.98720294 15.0182741,6.94387139 13.8443447,7.65653059 C12.8830159,8.2402703 12.3670269,9.24270267 12.5391321,10.4143755 C10.6681822,10.1579343 9.09180319,9.28194838 7.84722472,7.80523421 L7.45359262,7.33826396 L7.15945714,7.87179065 C6.78770558,8.5459568 6.66426013,9.31678567 6.81176329,10.0422401 C6.87228858,10.3398624 6.97515982,10.6237218 7.11765551,10.8895174 L6.77997663,10.7602754 L6.73991672,11.3175646 C6.69931254,11.8836706 6.89014136,12.5445039 7.25046279,13.0851271 C7.35191886,13.237379 7.48254898,13.4045765 7.64812265,13.569516 L7.47362257,13.5430655 L7.68654967,14.1816417 C7.96642471,15.0206398 8.54772875,15.6697532 9.30211771,16.0305988 C8.54870847,16.3463924 7.94008098,16.5478896 6.93967196,16.8729301 L6.02439024,17.1701223 L6.86978486,17.6266629 C7.19211467,17.8007419 8.33110048,18.3821161 9.45647896,18.5565176 C11.9580458,18.9440287 14.77454,18.6284502 16.6706363,16.9417445 C18.2676983,15.5210496 18.7917428,13.500164 18.6828844,11.3971312 C18.6664468,11.0787571 18.754731,10.7748984 18.9315171,10.5416821 C19.2856335,10.0747118 20.2905058,8.71379943 20.2926829,8.71068129 Z M18.2630174,10.0470786 C17.9694262,10.4342671 17.8223585,10.9287632 17.8487022,11.43928 C17.9585404,13.5605916 17.3741883,15.2056861 16.111757,16.3286512 C14.6370519,17.6405333 12.2583862,18.1554586 9.58591163,17.7413894 C9.10192704,17.6664462 8.60172253,17.4986036 8.1877339,17.330976 C9.02648813,17.0459338 9.67419582,16.7918581 10.7202165,16.3028457 L12.1804436,15.6201853 L10.5682501,15.518254 C9.79600842,15.4694388 9.15298164,15.0997764 8.75771666,14.4995857 C8.96759572,14.4875432 9.16996356,14.4539962 9.37146053,14.3985146 L10.9090859,13.975521 L9.35861522,13.6004825 C8.605206,13.4182318 8.17575949,12.9729811 7.94813649,12.6314896 C7.79867387,12.4070901 7.70102783,12.177207 7.64246201,11.9652802 C7.79791185,12.0064613 7.97916114,12.0358149 8.27144603,12.0644159 L9.70652677,12.2046253 L8.56950043,11.3285318 C7.75023187,10.6973747 7.42191484,9.74913368 7.66260081,8.83755785 C10.2194677,11.4570212 13.2215656,11.2601475 13.5237566,11.329392 C13.4572441,10.6912459 13.4555024,10.6897406 13.438085,10.6289904 C13.0510933,9.27775499 13.8992094,8.59165386 14.2817379,8.35940524 C15.0807588,7.87437119 16.3490684,7.80125588 17.227556,8.60036318 C17.4172962,8.77282929 17.6738756,8.840676 17.9140173,8.78175366 C18.129557,8.72885259 18.3064519,8.67283336 18.4796457,8.61186809 L18.1191066,9.62881599 L18.57936,9.62913856 C18.492491,9.74418766 18.3883135,9.88192399 18.2630174,10.0470786 Z" id="Shape" fill="#000000" fill-rule="nonzero"></path>
                        <ellipse id="Oval" stroke="#FFFFFF" cx="13" cy="12.7816901" rx="12.5" ry="12.2816901"></ellipse>
                    </g>
                </g>
            </g>
        </g>
    </g>
</svg>