<?xml version="1.0" encoding="UTF-8"?>
<svg width="26px" height="27px" viewBox="0 0 26 27" version="1.1" xmlns="http://www.w3.org/2000/svg" xmlns:xlink="http://www.w3.org/1999/xlink">
    <title>003-instagramSVG</title>
    <defs>
        <filter id="filter-1">
            <feColorMatrix in="SourceGraphic" type="matrix" values="0 0 0 0 0.636869 0 0 0 0 0.063060 0 0 0 0 0.789459 0 0 0 1.000000 0"></feColorMatrix>
        </filter>
    </defs>
    <g id="Page-1" stroke="none" stroke-width="1" fill="none" fill-rule="evenodd">
        <g id="Group-16-Copy" transform="translate(-8.000000, -57.000000)">
            <g id="Group-12" transform="translate(8.000000, 11.000000)">
                <g id="003-instagram" transform="translate(0.000000, 46.478873)" filter="url(#filter-1)">
                    <g id="Group-12">
                        <path d="M16.4303857,6.2349708 L9.88668749,6.2349708 C7.75698108,6.2349708 6.02439024,7.93846613 6.02439024,10.0324082 L6.02439024,16.4663247 C6.02439024,18.5601598 7.75698108,20.2636551 9.88668749,20.2636551 L16.4304945,20.2636551 C18.5600921,20.2636551 20.2926829,18.5601598 20.2926829,16.4663247 L20.2926829,10.0324082 C20.2926829,7.93846613 18.5600921,6.2349708 16.4303857,6.2349708 Z M19.4562147,16.4663247 C19.4562147,18.1066721 18.0988589,19.4412338 16.4303857,19.4412338 L9.88668749,19.4412338 C8.21821426,19.4412338 6.86085845,18.1066721 6.86085845,16.4663247 L6.86085845,10.0324082 C6.86085845,8.39195379 8.21821426,7.05739214 9.88668749,7.05739214 L16.4304945,7.05739214 C18.0988589,7.05739214 19.4562147,8.39195379 19.4562147,10.0324082 L19.4562147,16.4663247 Z" id="Shape" fill="#000000" fill-rule="nonzero"></path>
                        <path d="M13.1585366,9.3524562 C10.9730683,9.3524562 9.19512195,11.1005453 9.19512195,13.249313 C9.19512195,15.3980806 10.9730683,17.1461697 13.1585366,17.1461697 C15.3440049,17.1461697 17.1219512,15.3980806 17.1219512,13.249313 C17.1219512,11.1005453 15.3440049,9.3524562 13.1585366,9.3524562 Z M13.1585366,16.3106707 C11.4417463,16.3106707 10.0448911,14.9373818 10.0448911,13.249313 C10.0448911,11.5613528 11.4417463,10.1879552 13.1585366,10.1879552 C14.8754375,10.1879552 16.272182,11.5613528 16.272182,13.249313 C16.272182,14.9373818 14.8754375,16.3106707 13.1585366,16.3106707 Z" id="Shape" fill="#000000" fill-rule="nonzero"></path>
                        <path d="M17.2804354,8.10546204 C16.6684742,8.10546204 16.1707317,8.5949489 16.1707317,9.19653042 C16.1707317,9.79821496 16.6684742,10.2877018 17.2804354,10.2877018 C17.8923967,10.2877018 18.3902439,9.79821496 18.3902439,9.19653042 C18.3902439,8.59484588 17.8923967,8.10546204 17.2804354,8.10546204 Z M17.2804354,9.49593028 C17.1125652,9.49593028 16.9759218,9.36158154 16.9759218,9.19653042 C16.9759218,9.03137625 17.1125652,8.89713053 17.2804354,8.89713053 C17.4484104,8.89713053 17.5850538,9.03137625 17.5850538,9.19653042 C17.5850538,9.36158154 17.4484104,9.49593028 17.2804354,9.49593028 Z" id="Shape" fill="#000000" fill-rule="nonzero"></path>
                        <ellipse id="Oval-Copy-2" stroke="#FFFFFF" cx="13" cy="12.7816901" rx="12.5" ry="12.2816901"></ellipse>
                    </g>
                </g>
            </g>
        </g>
    </g>
</svg>