<?xml version="1.0" encoding="UTF-8"?>
<svg width="26px" height="26px" viewBox="0 0 26 26" version="1.1" xmlns="http://www.w3.org/2000/svg" xmlns:xlink="http://www.w3.org/1999/xlink">
    <title>Group 11SVG</title>
    <defs>
        <filter id="filter-1">
            <feColorMatrix in="SourceGraphic" type="matrix" values="0 0 0 0 0.163281 0 0 0 0 0.434501 0 0 0 0 0.681810 0 0 0 1.000000 0"></feColorMatrix>
        </filter>
        <filter id="filter-2">
            <feColorMatrix in="SourceGraphic" type="matrix" values="0 0 0 0 1.000000 0 0 0 0 1.000000 0 0 0 0 1.000000 0 0 0 1.000000 0"></feColorMatrix>
        </filter>
    </defs>
    <g id="Page-1" stroke="none" stroke-width="1" fill="none" fill-rule="evenodd">
        <g id="Group-16-Copy" transform="translate(-8.000000, -11.000000)">
            <g id="Group-11" transform="translate(8.000000, 11.000000)" filter="url(#filter-1)">
                <g>
                    <g filter="url(#filter-2)" id="002-facebook">
                        <g transform="translate(8.666667, 6.197183)">
                            <path d="M4.86660297,13.943662 L2.64363124,13.943662 C2.27232402,13.943662 1.97027946,13.6402614 1.97027946,13.2672871 L1.97027946,8.23075199 L0.673351808,8.23075199 C0.302044561,8.23075199 0,7.92724501 0,7.55437717 L0,5.39621164 C0,5.02323742 0.302044561,4.71983682 0.673351808,4.71983682 L1.97027946,4.71983682 L1.97027946,3.63910514 C1.97027946,2.5675223 2.30526086,1.65583113 2.93889783,1.00275388 C3.57539424,0.346697962 4.46490065,0 5.51125418,0 L7.20660107,0.00276591054 C7.57727287,0.00340421435 7.87878788,0.306804818 7.87878788,0.679140763 L7.87878788,2.68294643 C7.87878788,3.05592068 7.57684924,3.35932126 7.20564792,3.35932126 L6.06419059,3.35974681 C5.71607681,3.35974681 5.62743331,3.42985233 5.60847609,3.45134145 C5.57723377,3.4869793 5.54006068,3.58772277 5.54006068,3.86591092 L5.54006068,4.71973044 L7.11986387,4.71973044 C7.23879657,4.71973044 7.35402254,4.74919817 7.45304487,4.8047294 C7.66665773,4.92462158 7.79946412,5.15132099 7.79946412,5.39631805 L7.79861687,7.55448354 C7.79861687,7.92724501 7.49657231,8.23064562 7.12526509,8.23064562 L5.54006068,8.23064562 L5.54006068,13.2672871 C5.54006068,13.6402614 5.23791019,13.943662 4.86660297,13.943662 L4.86660297,13.943662 Z M2.78406291,13.126225 L4.7261713,13.126225 L4.7261713,7.86479895 C4.7261713,7.6157594 4.92792268,7.41320865 5.17574325,7.41320865 L6.98483342,7.41320865 L6.98557477,5.53727379 L5.17563735,5.53727379 C4.92781675,5.53727379 4.7261713,5.33472304 4.7261713,5.08568349 L4.7261713,3.86591092 C4.7261713,3.54655305 4.75847272,3.18336594 4.99845621,2.91039052 C5.28842748,2.58039448 5.74541283,2.54230981 6.06397876,2.54230981 L7.06500445,2.54188432 L7.06500445,0.819990131 L5.51061873,0.81743697 C3.82903966,0.81743697 2.78406291,1.89870055 2.78406291,3.63910514 L2.78406291,5.08568349 C2.78406291,5.33461663 2.58241745,5.53727379 2.33459688,5.53727379 L0.813783452,5.53727379 L0.813783452,7.41320865 L2.33459688,7.41320865 C2.58241745,7.41320865 2.78406291,7.6157594 2.78406291,7.86479895 L2.78406291,13.126225 Z" id="Shape" fill="#000000" fill-rule="nonzero"></path>
                        </g>
                    </g>
                    <ellipse id="Oval-Copy-3" stroke="#FFFFFF" cx="13" cy="12.7816901" rx="12.5" ry="12.2816901"></ellipse>
                </g>
            </g>
        </g>
    </g>
</svg>