<?xml version="1.0" encoding="UTF-8"?>
<svg width="26px" height="26px" viewBox="0 0 26 26" version="1.1" xmlns="http://www.w3.org/2000/svg" xmlns:xlink="http://www.w3.org/1999/xlink">
    <title>Group 13SVG</title>
    <defs>
        <filter id="filter-1">
            <feColorMatrix in="SourceGraphic" type="matrix" values="0 0 0 0 1.000000 0 0 0 0 0.016654 0 0 0 0 0.016654 0 0 0 1.000000 0"></feColorMatrix>
        </filter>
        <filter id="filter-2">
            <feColorMatrix in="SourceGraphic" type="matrix" values="0 0 0 0 1.000000 0 0 0 0 1.000000 0 0 0 0 1.000000 0 0 0 1.000000 0"></feColorMatrix>
        </filter>
    </defs>
    <g id="Page-1" stroke="none" stroke-width="1" fill="none" fill-rule="evenodd">
        <g id="Group-16-Copy" transform="translate(-8.000000, -150.000000)">
            <g id="Group-12" transform="translate(8.000000, 11.000000)">
                <g id="Group-13" transform="translate(0.000000, 139.436620)" filter="url(#filter-1)">
                    <g>
                        <g filter="url(#filter-2)" id="004-youtube">
                            <g transform="translate(5.515152, 7.746479)">
                                <path d="M9.46136732,4.92208223 L6.23473905,3.17151534 C6.049211,3.07086109 5.82992018,3.07461765 5.64806925,3.18145925 C5.4661069,3.28841133 5.35757576,3.47734525 5.35757576,3.68705089 L5.35757576,7.15813196 C5.35757576,7.36684319 5.46543832,7.55544568 5.64617498,7.66250823 C5.74055472,7.71841502 5.84518584,7.74647887 5.95003986,7.74647887 C6.04609101,7.74647887 6.14236503,7.722945 6.23095051,7.67565628 L9.45769019,5.95525254 C9.64923535,5.85305144 9.7687979,5.65560995 9.76969317,5.43982751 C9.77046931,5.22404507 9.65235535,5.02571967 9.46136732,4.92208223 L9.46136732,4.92208223 Z M6.21345628,6.72148464 L6.21345628,4.12723382 L8.62498675,5.43562899 L6.21345628,6.72148464 Z" id="Shape" fill="#000000" fill-rule="nonzero"></path>
                                <path d="M14.0774073,2.55964025 L14.0767581,2.55308576 C14.0647481,2.43783585 13.9451895,1.41271255 13.4515908,0.891302332 C12.8810635,0.278019899 12.2342567,0.203517133 11.9231879,0.167795118 C11.8974368,0.164845588 11.8738496,0.162114554 11.852751,0.159274259 L11.8279737,0.15665246 C9.95312121,0.0190080547 7.12169138,0.000218483227 7.09334355,0.000109241614 L7.090855,0 L7.08836644,0.000109241614 C7.06001861,0.000218483227 4.22858878,0.0190080547 2.33685741,0.15665246 L2.3118637,0.159274259 C2.29173888,0.16200532 2.26955832,0.164517856 2.2454302,0.167358152 C1.93793189,0.203189401 1.29804973,0.27780143 0.72589944,0.913259889 C0.255779743,1.42909877 0.11988323,2.43226452 0.105925712,2.54500186 L0.104302738,2.55964025 C0.100083014,2.60759733 0,3.74928141 0,4.89544442 L0,5.96688616 C0,7.11304917 0.100083014,8.25473328 0.104302738,8.30279959 L0.10506013,8.31000955 C0.117070071,8.42340233 0.23652051,9.42973608 0.727847016,9.95136479 C1.26429199,10.5441098 1.94258438,10.6225453 2.30742759,10.6647125 C2.36509704,10.6713763 2.41475987,10.6770568 2.44862579,10.6830651 L2.48140975,10.6876533 C3.56392934,10.7916513 6.95798802,10.8428856 7.10189119,10.8449612 L7.10621911,10.8450704 L7.11054702,10.8449612 C7.13889485,10.8448519 9.97021646,10.8260624 11.845069,10.6884179 L11.8698463,10.6857961 C11.8935416,10.6826281 11.9201583,10.6797879 11.9493717,10.6767291 C12.2551389,10.6439566 12.8915587,10.5758991 13.4558106,9.94907069 C13.9259302,9.43312257 14.061935,8.42995683 14.0757843,8.31732872 L14.0774073,8.30269036 C14.081627,8.25462405 14.1818182,7.11304917 14.1818182,5.96688616 L14.1818182,4.89544442 C14.1818182,3.74928141 14.081627,2.60770656 14.0774073,2.55964025 L14.0774073,2.55964025 Z M13.3506422,5.96688616 C13.3506422,7.02773148 13.2588904,8.12025685 13.2502346,8.22054067 C13.2149621,8.4968127 13.0715999,9.13150649 12.8425451,9.38287143 C12.4893873,9.77515805 12.1265998,9.81404809 11.8617315,9.84234165 C11.8297049,9.84572814 11.8000587,9.8490054 11.7732256,9.85239187 C9.95982947,9.98479271 7.23529915,10.0051117 7.10978963,10.0058763 C6.96902419,10.0038008 3.62462833,9.95212949 2.57510908,9.85370277 C2.52133475,9.84485421 2.46323251,9.83808122 2.40199251,9.83108975 C2.09135644,9.79514927 1.66613886,9.74599056 1.33916491,9.38287143 L1.33148286,9.37456907 C1.10643131,9.13784249 0.967180683,8.54433281 0.931799976,8.2238179 C0.925199913,8.14800423 0.831067761,7.04258834 0.831067761,5.96688616 L0.831067761,4.89544442 C0.831067761,3.83580077 0.922603165,2.74447706 0.931475375,2.64211765 C0.973564364,2.3166869 1.11963146,1.72044616 1.33916491,1.47945918 C1.70314252,1.07526521 2.08692034,1.03047613 2.3407525,1.00087165 C2.36498882,0.998031381 2.3876022,0.995409582 2.40848438,0.992678549 C4.2482808,0.85962225 6.99239493,0.839849525 7.090855,0.839084826 C7.18931506,0.83974029 9.93245542,0.85962225 11.755914,0.992678549 C11.7783109,0.995518817 11.8027636,0.998359113 11.8290557,1.00141788 C12.0901371,1.0314593 12.4847347,1.07690381 12.846873,1.46689639 L12.8502271,1.47050135 C13.0752787,1.70722794 13.2145293,2.31111558 13.24991,2.63807572 C13.2561855,2.70962898 13.3506422,3.81744818 13.3506422,4.89544442 L13.3506422,5.96688616 Z" id="Shape" fill="#000000" fill-rule="nonzero"></path>
                            </g>
                        </g>
                        <ellipse id="Oval-Copy" stroke="#FFFFFF" cx="13" cy="12.7816901" rx="12.5" ry="12.2816901"></ellipse>
                    </g>
                </g>
            </g>
        </g>
    </g>
</svg>