<?xml version="1.0" encoding="UTF-8"?>
<svg width="19px" height="9px" viewBox="0 0 19 9" version="1.1" xmlns="http://www.w3.org/2000/svg" xmlns:xlink="http://www.w3.org/1999/xlink">
    <title>arrowsSVG</title>
    <g id="Page-1" stroke="none" stroke-width="1" fill="none" fill-rule="evenodd">
        <g id="BLOG" transform="translate(-1097.000000, -493.000000)" fill="#007AFF" fill-rule="nonzero">
            <g id="Group-5" transform="translate(135.000000, 217.000000)">
                <g id="Group-2" transform="translate(818.000000, 269.000000)">
                    <g id="arrows" transform="translate(144.241379, 7.000000)">
                        <path d="M17.7181733,3.77419318 L2.46478252,3.77419318 L4.99156494,1.24025627 C5.27350695,0.957481922 5.27458733,0.497937309 4.99397778,0.213820214 C4.71336823,-0.0703331717 4.25730568,-0.0713855917 3.97536366,0.21135247 L0.211911327,3.98554814 C0.211659239,3.98576588 0.211479177,3.98601991 0.211263101,3.98623766 C-0.0699586633,4.26901201 -0.0708589763,4.73004453 0.211191076,5.01376243 C0.211443164,5.01398017 0.211623227,5.0142342 0.211839302,5.01445194 L3.97529164,8.78864761 C4.25719764,9.07134938 4.71326019,9.07036955 4.99390575,8.78617987 C5.27451531,8.50206277 5.27343493,8.04251816 4.99149291,7.75974381 L2.46478252,5.2258069 L17.7181733,5.2258069 C18.1159675,5.2258069 18.4384236,4.90086317 18.4384236,4.5 C18.4384236,4.09913691 18.1159675,3.77419318 17.7181733,3.77419318 Z" id="Path" transform="translate(9.219212, 4.500000) rotate(-180.000000) translate(-9.219212, -4.500000) "></path>
                    </g>
                </g>
            </g>
        </g>
    </g>
</svg>