<?xml version="1.0" encoding="UTF-8"?>
<svg width="37px" height="38px" viewBox="0 0 37 38" version="1.1" xmlns="http://www.w3.org/2000/svg" xmlns:xlink="http://www.w3.org/1999/xlink">
    <title>001-united-states-of-americaSVG</title>
    <g id="Page-1" stroke="none" stroke-width="1" fill="none" fill-rule="evenodd">
        <g id="GISROS-NACIONALES" transform="translate(-753.000000, -1064.000000)" fill-rule="nonzero">
            <g id="001-united-states-of-america" transform="translate(753.009569, 1064.666667)">
                <g id="Group" fill="#C42126">
                    <rect id="Rectangle" x="0.0811786082" y="19.8832015" width="35.8432439" height="1"></rect>
                    <rect id="Rectangle" x="1.94805857" y="9.99551688" width="32.1081158" height="1"></rect>
                    <rect id="Rectangle" x="0.671243716" y="13.2909019" width="34.6605293" height="1"></rect>
                    <polygon id="Path" points="7.73727909 33.0880173 28.2671819 33.0880173 28.268246 33.0862048 7.73613894 33.0862048"></polygon>
                    <path d="M18.0019644,0.0891184072 C17.6483662,0.0891184072 17.2975804,0.109418407 16.9493789,0.141076741 L19.054778,0.141076741 C18.7062725,0.109418407 18.3555627,0.0891184072 18.0019644,0.0891184072 Z" id="Path"></path>
                    <rect id="Rectangle" x="0.0743377143" y="16.5870517" width="35.8546454" height="1"></rect>
                </g>
                <path d="M23.3227358,6.70005538 L31.9188511,6.70005538 C30.8978096,5.44943038 29.7111426,4.34235232 28.3964748,3.40512922 L21.9415593,3.40512922 C22.4756811,4.35061181 22.9350091,5.46625527 23.3227358,6.70005538 Z" id="Path" fill="#E7E7E7"></path>
                <path d="M21.9415593,3.40512922 L28.3964748,3.40512922 C25.7279941,1.50246308 22.5242514,0.310954641 19.054778,0.109361814 L18.5005136,0.109361814 C20.133511,0.316155063 20.883577,1.53213608 21.9415593,3.40512922 Z" id="Path" fill="#DC3027"></path>
                <path d="M35.3329132,13.2912078 C35.0128354,12.1426793 34.5836073,11.0407252 34.0560984,9.99628165 L24.166598,9.99628165 C24.3669602,11.0541851 24.5250609,12.1591983 24.6421162,13.2912078 L35.3329132,13.2912078 Z" id="Path" fill="#E7E7E7"></path>
                <path d="M23.6103573,9.99574631 L34.0557943,9.99574631 C33.4605605,8.81777426 32.7454591,7.71237869 31.9188511,6.70028481 L22.7943147,6.70028481 C23.1160647,7.72499736 23.3892444,8.83039293 23.6103573,9.99574631 Z" id="Path" fill="#DC3027"></path>
                <path d="M25.0207977,19.8824367 L35.9229783,19.8824367 C35.9747411,19.3250738 36.0040049,18.7602162 36.0040049,18.1893935 C36.0040049,17.6491614 35.9758812,17.1158122 35.9298192,16.5872811 L25.023382,16.5872811 C25.0588786,17.6831936 25.0582705,18.7871361 25.0207977,19.8824367 Z" id="Path" fill="#E7E7E7"></path>
                <path d="M35.9301233,16.5867458 C35.8314624,15.4550422 35.6288199,14.3540058 35.3329132,13.2918196 L24.1828642,13.2918196 C24.2948268,14.3708307 24.3687844,15.4747732 24.4048892,16.5867458 L35.9301233,16.5867458 Z" id="Path" fill="#DC3027"></path>
                <path d="M23.9784734,26.4736656 L34.0088962,26.4736656 C34.5438541,25.4303692 34.9798471,24.3275738 35.3067658,23.1782041 L24.4634168,23.1782041 C24.3440052,24.3118961 24.181952,25.4166799 23.9784734,26.4736656 Z" id="Path" fill="#E7E7E7"></path>
                <path d="M35.3070698,23.1779747 C35.6092093,22.1160944 35.8189967,21.015058 35.9232824,19.8830485 L24.6811093,19.8830485 C24.6427242,20.9958623 24.5665623,22.0994989 24.4523194,23.1779747 L35.3070698,23.1779747 L35.3070698,23.1779747 Z" id="Path" fill="#DC3027"></path>
                <path d="M28.268246,33.0643592 C29.6019163,32.1308834 30.8053816,31.0226582 31.8426131,29.769433 L23.3963134,29.769433 C23.0015178,31.0083571 22.5327645,32.1222416 21.9889895,33.0643592 L28.268246,33.0643592 L28.268246,33.0643592 Z" id="Path" fill="#E7E7E7"></path>
                <g id="Group" transform="translate(17.178245, 26.460970)" fill="#DC3027">
                    <path d="M5.90027103,3.30823312 L14.6643683,3.30823312 C15.5006296,2.29728639 16.2266004,1.19189082 16.8305754,0.0127716245 L6.72657501,0.0127716245 C6.50234571,1.17896624 6.22635364,2.28489715 5.90027103,3.30823312 Z" id="Path"></path>
                    <path d="M0.182271819,9.85128776 C0.142212043,9.84947526 0.1022359,9.84681693 0.062176125,9.84500443 C0.1022359,9.8466961 0.142295676,9.84947526 0.182271819,9.85128776 Z" id="Path"></path>
                    <path d="M0.823719641,9.84080432 C4.64025438,9.84080432 8.17654049,8.64218354 11.0889371,6.60453586 L4.57374568,6.60453586 C3.41740658,8.60899262 2.65449488,9.84080432 0.823719641,9.84080432 Z" id="Path"></path>
                </g>
                <path d="M18.0019644,36.327679 C17.7833599,36.327679 17.5661995,36.3195832 17.3496472,36.307379 C17.5684798,36.3190998 17.7858682,36.327679 18.0019644,36.327679 Z" id="Path" fill="#C42126"></path>
                <path d="M22.5376292,3.40512922 L7.60798619,3.40512922 C6.29309036,4.34235232 5.10665132,5.4493539 4.08530586,6.70005538 L23.9185016,6.70005538 C23.5307749,5.46625527 23.071751,4.35061181 22.5376292,3.40512922 Z" id="Path" fill="#F3F4F5"></path>
                <path d="M7.60798619,3.40512922 L22.5376292,3.40512922 C21.4794189,1.53213608 20.133511,0.316155063 18.5005136,0.109361814 L16.9493789,0.109361814 C13.4799055,0.310954641 10.2761629,1.50246308 7.60798619,3.40512922 Z" id="Path" fill="#E73625"></path>
                <path d="M0.671547756,13.2912078 L25.2098344,13.2912078 C25.092703,12.1589689 24.9346784,11.0541851 24.7343162,9.99628165 L1.94836261,9.99628165 C1.42077766,11.0408017 0.991625583,12.1426793 0.671547756,13.2912078 Z" id="Path" fill="#F3F4F5"></path>
                <path d="M4.08530586,6.70005538 C3.25930592,7.71214926 2.54359639,8.81746835 1.94866665,9.99551688 L24.7343162,9.99551688 C24.5134313,8.83039293 24.2403277,7.72507384 23.9185016,6.70005538 C23.9185016,6.70005538 4.08530586,6.70005538 4.08530586,6.70005538 Z" id="Path" fill="#E73625"></path>
                <path d="M0.000152019865,18.1893935 C0.000152019865,18.7602162 0.0297198837,19.3250738 0.0811786082,19.8824367 L25.4298071,19.8824367 C25.467356,18.7870596 25.4678881,17.683423 25.4323914,16.5875105 L0.0743377143,16.5875105 C0.028275695,17.1158122 0.000152019865,17.6491614 0.000152019865,18.1893935 Z" id="Path" fill="#F3F4F5"></path>
                <path d="M0.0743377143,16.5867458 L25.4320874,16.5867458 C25.3959827,15.4745438 25.321797,14.3709072 25.2100624,13.2918196 L0.671243716,13.2918196 C0.375337048,14.3542352 0.172694567,15.4550422 0.0743377143,16.5867458 Z" id="Path" fill="#E73625"></path>
                <path d="M25.2010172,23.1779747 L0.697391133,23.1779747 C1.02430985,24.3276503 1.46060687,25.4301398 1.99526074,26.4734362 L24.7160738,26.4734362 C24.9196284,25.4166799 25.0813016,24.3118961 25.2010172,23.1779747 Z" id="Path" fill="#F3F4F5"></path>
                <path d="M0.697391133,23.1779747 L25.2010172,23.1779747 C25.3150321,22.0994989 25.3914221,20.9955564 25.4298071,19.8830485 L0.0811786082,19.8830485 C0.185464236,21.0152874 0.39555569,22.1160944 0.697391133,23.1779747 Z" id="Path" fill="#E73625"></path>
                <path d="M7.73613894,33.0643592 L22.48275,33.0643592 C23.026525,32.1220121 23.4955063,31.0083571 23.8900739,29.769433 L4.16177185,29.769433 C5.19900339,31.0226582 6.40216462,32.1308834 7.73613894,33.0643592 Z" id="Path" fill="#F3F4F5"></path>
                <g id="Group" transform="translate(1.976258, 26.460970)" fill="#E73625">
                    <path d="M0.0193065229,0.0126951477 C0.623357459,1.19181435 1.34925232,2.29720992 2.1855136,3.30815665 L21.9138156,3.30815665 C22.2395942,2.28489715 22.5155863,1.17896624 22.7398156,0.0126951477 L0.0193065229,0.0126951477 Z" id="Path"></path>
                    <path d="M15.2641627,9.82390295 C15.3005714,9.82505011 15.3369042,9.82673259 15.3733129,9.82787975 C15.5899413,9.8356039 15.8071016,9.84072785 16.0256302,9.84072785 C17.8564814,9.84072785 19.3493165,8.60899262 20.5058837,6.60445939 L5.76102083,6.60445939 C8.4781479,8.50582542 11.7395821,9.67607331 15.2641627,9.82390295 Z" id="Path"></path>
                </g>
                <path d="M17.6298198,0.0858834388 C8.40472231,0.274704641 0.885819757,7.44126846 0.0766180122,16.5572257 L17.6301239,16.5572257 L17.6301239,0.0858834388 L17.6298198,0.0858834388 Z" id="Path" fill="#283991"></path>
                <g id="Group" transform="translate(0.532070, 1.300105)" fill="#EFEFEF">
                    <polygon id="Path" points="3.07004118 9.03856276 3.34428502 9.88821994 4.23284114 9.88821994 3.5140152 10.4136155 3.78856308 11.2638845 3.07004118 10.738183 2.35174732 11.2638845 2.62576313 10.4136155 1.90716522 9.88821994 2.79572134 9.88821994"></polygon>
                    <polygon id="Path" points="3.07004118 12.0403534 3.34428502 12.8905459 4.23284114 12.8905459 3.5140152 13.4159415 3.78856308 14.2662104 3.07004118 13.740509 2.35174732 14.2662104 2.62576313 13.4159415 1.90716522 12.8905459 2.79572134 12.8905459"></polygon>
                    <polygon id="Path" points="6.05403913 4.53476793 6.32835897 5.38473101 7.21661105 5.38473101 6.49801314 5.91043249 6.77233299 6.76008966 6.05403913 6.235 5.33544122 6.76008966 5.60976107 5.91043249 4.89085912 5.38473101 5.77941524 5.38473101"></polygon>
                    <polygon id="Path" points="6.05403913 7.53709388 6.32835897 8.38705696 7.21661105 8.38705696 6.49801314 8.91214662 6.77233299 9.76241561 6.05403913 9.23732595 5.33544122 9.76241561 5.60976107 8.91214662 4.89085912 8.38705696 5.77941524 8.38705696"></polygon>
                    <polygon id="Path" points="6.05403913 10.5394198 6.32835897 11.3896888 7.21661105 11.3896888 6.49801314 11.9144726 6.77233299 12.7647416 6.05403913 12.2391166 5.33544122 12.7647416 5.60976107 11.9144726 4.89085912 11.3896888 5.77941524 11.3896888"></polygon>
                    <path d="M0.804565138,12.7647416 L0.530017261,11.9144726 L1.24861517,11.3893829 L0.360591121,11.3893829 L0.340676519,11.3273602 C0.243155775,11.6308201 0.155060263,11.9379509 0.0738056447,12.2485232 L0.0863472836,12.2391166 L0.804565138,12.7647416 Z" id="Path"></path>
                    <path d="M2.35174732,8.26155854 L3.07004118,7.73593354 L3.78863909,8.26155854 L3.51409121,7.41128956 L4.23268912,6.88566456 L3.344133,6.88566456 L3.06981315,6.03600738 L2.79549331,6.88566456 L2.46804252,6.88566456 C2.40723457,6.97835443 2.34840288,7.07157964 2.28926716,7.1656461 L2.62583914,7.41128956 L2.35174732,8.26155854 Z" id="Path"></path>
                    <path d="M6.05403913,3.23267405 L6.77233299,3.75776371 L6.49801314,2.90810654 L7.21630701,2.38248154 L6.70323996,2.38248154 C6.26747502,2.71026108 5.84706408,3.05715981 5.4431473,3.42317774 L5.33483314,3.75776371 L6.05403913,3.23267405 Z" id="Path"></path>
                    <path d="M8.31943916,2.25690665 L9.03803707,1.73128165 L9.75633093,2.25690665 L9.48201108,1.40663766 L10.2003049,0.881547996 L9.31205287,0.881547996 L9.27480801,0.767138713 C8.97380867,0.921851266 8.67592575,1.08283492 8.3848077,1.25414293 L8.59345497,1.40656118 L8.31943916,2.25690665 Z" id="Path"></path>
                    <polygon id="Path" points="9.03803707 3.03391086 9.31235691 3.88333861 10.200609 3.88333861 9.48201108 4.40896361 9.75633093 5.25923259 9.03803707 4.73353112 8.31943916 5.25923259 8.59375901 4.40896361 7.87493307 3.88333861 8.76341318 3.88333861"></polygon>
                    <polygon id="Path" points="9.03803707 6.03623681 9.31235691 6.88566456 10.200609 6.88566456 9.48201108 7.41128956 9.75633093 8.26155854 9.03803707 7.73585707 8.31943916 8.26155854 8.59375901 7.41128956 7.87493307 6.88566456 8.76341318 6.88566456"></polygon>
                    <polygon id="Path" points="9.03803707 9.03856276 9.31235691 9.88821994 10.200609 9.88821994 9.48201108 10.4136155 9.75633093 11.2638845 9.03803707 10.738183 8.31943916 11.2638845 8.59375901 10.4136155 7.87493307 9.88821994 8.76341318 9.88821994"></polygon>
                    <polygon id="Path" points="9.03803707 12.0403534 9.31235691 12.8905459 10.200609 12.8905459 9.48201108 13.4159415 9.75633093 14.2662104 9.03803707 13.740509 8.31943916 14.2662104 8.59375901 13.4159415 7.87493307 12.8905459 8.76341318 12.8905459"></polygon>
                    <polygon id="Path" points="12.022035 1.53244198 12.2963549 2.38240506 13.1846069 2.38240506 12.4663131 2.90810654 12.7403289 3.75776371 12.022035 3.23267405 11.3032091 3.75776371 11.5777569 2.90810654 10.858931 2.38240506 11.7474111 2.38240506"></polygon>
                    <polygon id="Path" points="12.022035 4.53476793 12.2963549 5.38473101 13.1846069 5.38473101 12.4663131 5.91043249 12.7403289 6.76008966 12.022035 6.235 11.3032091 6.76008966 11.5777569 5.91043249 10.858931 5.38473101 11.7474111 5.38473101"></polygon>
                    <polygon id="Path" points="12.022035 7.53709388 12.2963549 8.38705696 13.1846069 8.38705696 12.4663131 8.91214662 12.7403289 9.76241561 12.022035 9.23732595 11.3032091 9.76241561 11.5777569 8.91214662 10.858931 8.38705696 11.7474111 8.38705696"></polygon>
                    <polygon id="Path" points="12.022035 10.5394198 12.2963549 11.3896888 13.1846069 11.3896888 12.4663131 11.9144726 12.7403289 12.7647416 12.022035 12.2391166 11.3032091 12.7647416 11.5777569 11.9144726 10.858931 11.3896888 11.7474111 11.3896888"></polygon>
                    <polygon id="Path" points="15.0060329 0.0315849156 15.2803528 0.881547996 16.1686049 0.881547996 15.450007 1.40663766 15.7243268 2.25690665 15.0060329 1.73120517 14.287207 2.25690665 14.5617549 1.40663766 13.842929 0.881547996 14.731181 0.881547996"></polygon>
                    <polygon id="Path" points="15.0060329 3.03391086 15.2803528 3.88333861 16.1686049 3.88333861 15.450007 4.40896361 15.7243268 5.25923259 15.0060329 4.73353112 14.287207 5.25923259 14.5617549 4.40896361 13.842929 3.88333861 14.731181 3.88333861"></polygon>
                    <polygon id="Path" points="15.0060329 6.03623681 15.2803528 6.88566456 16.1686049 6.88566456 15.450007 7.41128956 15.7243268 8.26155854 15.0060329 7.73585707 14.287207 8.26155854 14.5617549 7.41128956 13.842929 6.88566456 14.731181 6.88566456"></polygon>
                    <polygon id="Path" points="15.0060329 9.03856276 15.2803528 9.88821994 16.1686049 9.88821994 15.450007 10.4136155 15.7243268 11.2638845 15.0060329 10.738183 14.287207 11.2638845 14.5617549 10.4136155 13.842929 9.88821994 14.731181 9.88821994"></polygon>
                    <polygon id="Path" points="15.0060329 12.0403534 15.2803528 12.8905459 16.1686049 12.8905459 15.450007 13.4159415 15.7243268 14.2662104 15.0060329 13.740509 14.287207 14.2662104 14.5617549 13.4159415 13.842929 12.8905459 14.731181 12.8905459"></polygon>
                </g>
            </g>
        </g>
    </g>
</svg>