<?xml version="1.0" encoding="UTF-8"?>
<svg width="38px" height="38px" viewBox="0 0 38 38" version="1.1" xmlns="http://www.w3.org/2000/svg" xmlns:xlink="http://www.w3.org/1999/xlink">
    <title>002-spainSVG</title>
    <g id="Page-1" stroke="none" stroke-width="1" fill="none" fill-rule="evenodd">
        <g id="GISROS-NACIONALES" transform="translate(-753.000000, -1143.000000)" fill-rule="nonzero">
            <g id="002-spain" transform="translate(753.009569, 1143.875000)">
                <path d="M-5.40012479e-13,18.125 C-5.40012479e-13,20.3420557 0.396386158,22.4657959 1.12047875,24.429314 L18.0143541,26.0054102 L34.9082294,24.429314 C35.632322,22.4657959 36.0287081,20.3420557 36.0287081,18.125 C36.0287081,15.9079443 35.632322,13.7842041 34.9082294,11.820686 L18.0143541,10.2445898 L1.12047875,11.820686 C0.396386158,13.7842041 -5.40012479e-13,15.9079443 -5.40012479e-13,18.125 Z" id="Path" fill="#FFDA44"></path>
                <g id="Group" transform="translate(1.055529, 0.000000)" fill="#D80027">
                    <path d="M33.8527008,11.820686 C31.3073993,4.91874268 24.7043644,1.45661261e-13 16.9588255,1.45661261e-13 C9.21328658,1.45661261e-13 2.61025176,4.91874268 0.0649501906,11.820686 L33.8527008,11.820686 Z" id="Path"></path>
                    <path d="M0.0649501906,24.429314 C2.61025176,31.3312573 9.21328658,36.25 16.9588255,36.25 C24.7043644,36.25 31.3073993,31.3312573 33.8527008,24.429314 L0.0649501906,24.429314 Z" id="Path"></path>
                </g>
            </g>
        </g>
    </g>
</svg>