<?xml version="1.0" encoding="UTF-8"?>
<svg width="37px" height="38px" viewBox="0 0 37 38" version="1.1" xmlns="http://www.w3.org/2000/svg" xmlns:xlink="http://www.w3.org/1999/xlink">
    <title>003-italySVG</title>
    <g id="Page-1" stroke="none" stroke-width="1" fill="none" fill-rule="evenodd">
        <g id="GISROS-NACIONALES" transform="translate(-1020.000000, -1143.000000)" fill-rule="nonzero">
            <g id="003-italy" transform="translate(1020.009569, 1143.875000)">
                <path d="M24.0040888,1.0351134 L21.9032503,6.89568302 C23.8424157,13.3344937 23.8424157,22.8912632 21.9032503,29.3303797 L24.0040888,35.1903376 C30.9951024,32.7030828 36.004689,25.9982094 36.004689,18.1123049 C36.004689,10.2276239 30.9951024,3.52244462 24.0040888,1.0351134 Z" id="Path" fill="#E63026"></path>
                <g id="Group" transform="translate(17.938344, 0.000000)" fill="#E4E4E4">
                    <path d="M6.06574466,6.89568302 L6.06574466,1.0351134 C4.18829932,0.367088608 2.16901944,0.000152953587 0.0638483435,0.000152953587 C2.8398071,0.000152953587 -1.00918388,9.46591508 6.06574466,6.89568302 Z" id="Path"></path>
                    <path d="M0.0638483435,36.2256804 C2.16894343,36.2256804 4.18829932,35.8587447 6.06574466,35.1906435 L6.06574466,29.3306857 C-0.93811459,28.6274051 0.0638483435,36.2256804 0.0638483435,36.2256804 Z" id="Path"></path>
                </g>
                <path d="M-1.42108547e-14,18.1125343 C-1.42108547e-14,26.0248233 5.04363909,32.7473629 12.0708334,35.2145807 L12.0708334,1.0117115 C5.04363909,3.47892932 -1.42108547e-14,10.2014689 -1.42108547e-14,18.1125343 Z" id="Path" fill="#359846"></path>
                <path d="M24.0040888,6.89568302 L24.0040888,29.3303797 C25.9434822,22.8912632 25.9434822,13.3344172 24.0040888,6.89568302 Z" id="Path" fill="#EF4C4C"></path>
                <path d="M24.0040888,29.3306092 L24.0040888,6.89568302 C22.7784286,2.82489979 20.7781512,0.000152953587 18.0021925,0.000152953587 C15.9232448,0.000152953587 13.9286682,0.359364451 12.0708334,1.0117115 L12.0708334,35.2147336 C13.9286682,35.8670807 15.9232448,36.2257569 18.0021925,36.2257569 C20.7781512,36.2257569 22.7784286,33.4009335 24.0040888,29.3306092 Z" id="Path" fill="#F3F4F5"></path>
            </g>
        </g>
    </g>
</svg>