<?xml version="1.0" encoding="UTF-8"?>
<svg width="38px" height="38px" viewBox="0 0 38 38" version="1.1" xmlns="http://www.w3.org/2000/svg" xmlns:xlink="http://www.w3.org/1999/xlink">
    <title>004-israelSVG</title>
    <g id="Page-1" stroke="none" stroke-width="1" fill="none" fill-rule="evenodd">
        <g id="GISROS-NACIONALES" transform="translate(-1020.000000, -1065.000000)" fill-rule="nonzero">
            <g id="004-israel" transform="translate(1020.009569, 1065.875000)">
                <ellipse id="Oval" fill="#F0F0F0" cx="18.0143541" cy="18.125" rx="18.0143541" ry="18.125"></ellipse>
                <g id="Group" transform="translate(2.603637, 3.894043)" fill="#0052B4">
                    <path d="M22.1937546,10.290752 L17.6716591,10.290752 L15.410717,6.35054688 L13.1498452,10.290752 L8.62767933,10.290752 L10.888903,14.230957 L8.62767933,18.1711621 L13.1498452,18.1711621 L15.410717,22.1113672 L17.6716591,18.1711621 L22.1937546,18.1711621 L19.9325309,14.230957 L22.1937546,10.290752 Z M18.1885163,14.230957 L16.7997222,16.6514941 L14.0219228,16.6514941 L12.6329176,14.230957 L14.0218525,11.8104199 L16.7996518,11.8104199 L18.1885163,14.230957 Z M15.410717,9.38981201 L15.9276445,10.2906812 L14.8939302,10.2906812 L15.410717,9.38981201 Z M11.2439124,11.8104199 L12.2777675,11.8104199 L11.7608399,12.7112891 L11.2439124,11.8104199 Z M11.2439124,16.6514941 L11.7609103,15.750625 L12.2778378,16.6514941 L11.2439124,16.6514941 Z M15.410717,19.0720313 L14.8938598,18.1711621 L15.9276445,18.1711621 L15.410717,19.0720313 Z M19.5775215,16.6514941 L18.5436665,16.6514941 L19.0606643,15.750625 L19.5775215,16.6514941 Z M18.5436665,11.8104199 L19.5775215,11.8104199 L19.060594,12.7112891 L18.5436665,11.8104199 Z" id="Shape"></path>
                    <path d="M26.6244413,0.0461621094 L4.19699265,0.0461621094 C2.55297174,1.36362305 1.14306706,2.9638623 0.0403915595,4.77445068 L30.7810424,4.77445068 C29.6782965,2.96393311 28.2683918,1.36362305 26.6244413,0.0461621094 Z" id="Path"></path>
                    <path d="M4.19699265,28.415752 L26.6243709,28.415752 C28.2683918,27.098291 29.6782965,25.4980518 30.780972,23.6874634 L0.0403915595,23.6874634 C1.14313743,25.497981 2.55304211,27.098291 4.19699265,28.415752 Z" id="Path"></path>
                </g>
            </g>
        </g>
    </g>
</svg>