<?xml version="1.0" encoding="UTF-8"?>
<svg width="38px" height="38px" viewBox="0 0 38 38" version="1.1" xmlns="http://www.w3.org/2000/svg" xmlns:xlink="http://www.w3.org/1999/xlink">
    <title>005-englandSVG</title>
    <g id="Page-1" stroke="none" stroke-width="1" fill="none" fill-rule="evenodd">
        <g id="GISROS-NACIONALES" transform="translate(-753.000000, -1223.000000)" fill-rule="nonzero">
            <g id="005-england" transform="translate(753.009569, 1223.083333)">
                <ellipse id="Oval" fill="#F0F0F0" cx="18.0143541" cy="18.125" rx="18.0143541" ry="18.125"></ellipse>
                <path d="M35.8762194,15.7608911 L20.3641717,15.7608911 L20.3641014,15.7608911 L20.3641014,0.153425293 C19.5949025,0.0526757812 18.8107152,0 18.0143541,0 C17.217993,0 16.4338056,0.0526757812 15.6646771,0.153425293 L15.6646771,15.7607495 L15.6646771,15.7608203 L0.152488692,15.7608203 C0.0523542165,16.5347437 -5.40012479e-13,17.323606 -5.40012479e-13,18.125 C-5.40012479e-13,18.926394 0.0523542165,19.7152563 0.152488692,20.4891089 L15.6645364,20.4891089 L15.6646068,20.4891089 L15.6646068,36.0965747 C16.4338056,36.1973242 17.217993,36.25 18.0143541,36.25 C18.8107152,36.25 19.5949025,36.197395 20.364031,36.0965747 L20.364031,20.4892505 L20.364031,20.4891797 L35.8762194,20.4891797 C35.9763539,19.7152563 36.0287081,18.926394 36.0287081,18.125 C36.0287081,17.323606 35.9763539,16.5347437 35.8762194,15.7608911 Z" id="Path" fill="#D80027"></path>
            </g>
        </g>
    </g>
</svg>