<?xml version="1.0" encoding="UTF-8"?>
<svg width="36px" height="36px" viewBox="0 0 36 36" version="1.1" xmlns="http://www.w3.org/2000/svg" xmlns:xlink="http://www.w3.org/1999/xlink">
    <title>americanoSVG</title>
    <g id="Page-1" stroke="none" stroke-width="1" fill="none" fill-rule="evenodd">
        <g id="GISROS-NACIONALES" transform="translate(-1020.000000, -1221.000000)">
            <g id="Group-21" transform="translate(1020.000000, 1221.000000)">
                <g id="Group" transform="translate(3.000000, 3.000000)" fill="#000000" fill-rule="nonzero">
                    <g id="america">
                        <path d="M21.7713834,22.1406139 C21.6597192,21.7291524 21.3731507,21.3944533 20.98518,21.2221731 L19.3935958,20.514877 C19.3460054,20.144407 19.1303094,19.8095145 18.8121849,19.6147406 L18.5435109,19.4501947 C17.7520481,18.9655802 16.8965115,18.5985261 16.0007604,18.3593448 C15.4938779,18.2239312 14.9453057,18.3604405 14.5572708,18.7147975 L12.6305657,16.2589191 C12.6231898,16.2495091 12.6191491,16.2378433 12.6191491,16.2260486 C12.6191491,16.2204412 12.6191491,16.203297 12.6355684,16.1876996 C12.6519878,16.1720378 12.6688561,16.1728112 12.6745002,16.1732624 C13.4481326,16.2138671 14.1892471,15.904691 14.7061992,15.324043 L17.4253292,12.2702435 C18.2543769,11.3391701 18.1778602,9.90073072 17.2547863,9.06369279 L16.3528779,8.245926 C16.0931832,8.0104829 15.7575491,7.88074105 15.4044054,7.88074105 C14.6461019,7.88074105 14.0269779,8.47711527 13.9949731,9.23822877 C13.9927283,9.29198172 13.9569393,9.33909612 13.9058854,9.35540247 L13.6540155,9.43603191 C13.6122617,9.44930902 13.5670444,9.44054355 13.5331796,9.41231358 C13.309787,9.22527392 13.1753537,8.96172975 13.1548937,8.67014897 C13.1344337,8.37856818 13.2305766,8.09858876 13.4256843,7.88190119 L13.8141681,7.45039514 C13.9216634,7.33090116 14.0142145,7.19838788 14.0890635,7.05685132 C14.1727636,6.89894396 14.3658189,6.83178499 14.5287936,6.90429347 L16.1598867,7.63028064 C16.7125638,7.87635832 17.3735057,7.69950207 17.7312033,7.20940917 C17.9408062,6.92214667 18.023416,6.57062554 17.9637676,6.21949113 C17.9041835,5.86829226 17.7102302,5.56407889 17.4175685,5.36285979 L15.3166646,3.91861971 C15.1585003,3.80982475 15.0966072,3.60164484 15.1694679,3.42375736 C15.2004466,3.34802628 15.2526549,3.28396101 15.3203205,3.23852236 L16.7282134,2.29262502 C17.0732758,2.06079123 17.2586987,1.65938426 17.2120704,1.244958 C17.1654421,0.830467281 16.8956136,0.48081526 16.5077712,0.332188982 L16.1778454,0.205798639 C15.4244806,-0.0828173514 14.6006922,-0.0674133269 13.8584875,0.249174825 L13.5391444,0.38536187 C13.2130669,0.524449254 13.0609316,0.902782408 13.1993414,1.2304563 C13.3378153,1.55813019 13.7144335,1.71107476 14.0403186,1.57192292 L14.3596617,1.43573587 C14.7952228,1.24985635 15.2786949,1.24096197 15.7207981,1.41021289 L15.7290077,1.41337104 L14.6074267,2.16707255 C14.3274644,2.35514345 14.1117042,2.6200411 13.9833,2.93334221 C13.6814666,3.67067292 13.9376337,4.53246041 14.5924184,4.98259308 L16.6931941,6.42689762 C16.6954389,6.42838001 16.6981969,6.43037802 16.6992872,6.43637206 C16.7003134,6.44243055 16.6983251,6.44513753 16.6967858,6.44726444 C16.6928093,6.45261396 16.6855617,6.45461197 16.6794044,6.45190499 L15.048183,5.72591783 C14.2734602,5.38122861 13.3547477,5.69987922 12.9564508,6.45196944 C12.930988,6.50024398 12.899368,6.54542482 12.8628093,6.58609402 L12.4743255,7.01747116 C12.042741,7.49699393 11.8299953,8.11631306 11.8753409,8.76128407 C11.9206864,9.40625509 12.217966,9.9892233 12.7122775,10.403005 C13.0842137,10.714437 13.5820527,10.8120818 14.0433331,10.6645512 L14.2951389,10.5839218 C14.8571159,10.4041007 15.2515004,9.88539115 15.2765784,9.29320631 C15.2794646,9.22411378 15.3356495,9.17003856 15.4077406,9.17003856 C15.4394889,9.17003856 15.4699544,9.18183328 15.493493,9.20323134 L16.3954656,10.0209981 C16.7956225,10.3839273 16.8288459,11.0075002 16.4694167,11.4110341 L13.7502867,14.4648981 C13.4936706,14.7531273 13.1242999,14.9060719 12.7418451,14.8863496 C12.3772206,14.8673363 12.0174706,15.0005585 11.7530297,15.2525658 C11.4885247,15.5044441 11.33671,15.8589301 11.3363252,16.2252107 C11.3360687,16.5256214 11.4378557,16.8210693 11.623022,17.0571569 L12.3112226,17.9343484 L10.9771525,17.2820943 L9.08444046,14.6772674 C8.98855417,14.5452697 8.84629611,14.4548436 8.68659253,14.4242289 C8.26001077,14.3425037 7.94066773,13.9813793 7.91000977,13.5460706 L7.78096414,11.7133784 C7.77249792,11.5927242 7.73035926,11.476904 7.65942265,11.3791304 L6.14781855,9.29591329 C6.11029783,9.2442228 6.0653371,9.19839744 6.01441154,9.16004851 C5.89556384,9.07046025 4.82869255,8.28085898 3.96603662,8.133844 C3.29951465,8.02047295 2.81508043,8.27151344 2.52139258,8.55374868 L1.5828614,8.55374868 C1.45984474,8.3821775 1.28269562,8.02910952 1.28269562,7.41887812 C1.28269562,6.75379809 1.44753025,6.37656062 1.60184625,6.24520747 C1.64982146,6.20428046 1.71703807,6.16535146 1.85320302,6.18842527 C2.62439819,6.31758705 5.07312243,6.70623252 5.09781555,6.71016409 C5.16791837,6.72124983 5.23936809,6.72066977 5.30934264,6.70823053 L6.77778187,6.44778006 C7.00271379,6.40788428 7.18954775,6.25075034 7.2683092,6.03535181 L7.6578192,4.96989604 C7.84349867,4.46201439 8.23416316,4.04952169 8.72982153,3.83805472 L9.25177647,3.61537311 C9.577854,3.47628573 9.72998931,3.09788812 9.59157953,2.77021423 C9.45323389,2.44260479 9.07661563,2.28978913 8.75060224,2.42881206 L8.22851902,2.65155813 C7.4079376,3.00172576 6.76110599,3.684659 6.45382089,4.52537069 L6.19149652,5.24291465 L5.19203426,5.42015761 C4.71215383,5.34391091 2.73817898,5.02990084 2.06415286,4.91698096 C1.58626072,4.8370605 1.12780238,4.95939036 0.772798616,5.26173463 C0.267198857,5.69214498 0,6.43804781 0,7.41900703 C0,9.00807073 0.843478678,9.65542647 0.93968566,9.72406783 C1.048143,9.80141021 1.17789415,9.84298174 1.3108522,9.84298174 L2.82239216,9.84298174 C3.05655995,9.84298174 3.27219187,9.71472229 3.38481817,9.50834704 C3.38558783,9.50680019 3.47980653,9.35830281 3.7517516,9.40496605 C4.14459678,9.47193166 4.79752149,9.86805357 5.17029148,10.136625 L6.51455957,11.9892973 L6.63064932,13.6372701 C6.69587766,14.5635741 7.32019683,15.3462145 8.18368656,15.623487 L10.0352861,18.1717895 C10.097051,18.2567373 10.1785063,18.3252497 10.2726608,18.3712684 L13.813655,20.1023199 C13.7935157,20.187332 13.7505432,20.2466923 13.6805045,20.3429191 C13.5316403,20.5474897 13.3065801,20.8566014 13.2378241,21.4374427 C13.139693,22.2657152 13.4846271,22.7835869 13.7364329,23.1617267 C13.8502137,23.3325889 13.9485372,23.480184 14.0052993,23.6411206 C14.1898884,24.1638906 14.5590667,24.4007517 14.7795731,24.5422238 C14.8267787,24.5725162 14.8890566,24.6124764 14.917598,24.6367104 C14.9183036,24.6427689 14.9189449,24.6510832 14.9193298,24.6619111 C14.9293353,24.9944834 14.6612385,26.8042951 14.4654252,28.1258186 C14.279874,29.3783785 14.1195932,30.4602051 14.0990049,30.8433077 C14.03724,31.9913909 15.271768,32.8105112 15.4126792,32.9001639 C15.5170317,32.966485 15.6361359,33 15.7556891,33 C15.8552954,33 15.9551583,32.9767328 16.0469397,32.9296829 C16.2487178,32.8263019 16.3812911,32.6236004 16.3957221,32.3965361 L16.457038,31.4306586 C16.5713961,30.952876 16.7148086,30.3976866 16.7787542,30.2010436 C16.968795,29.9752039 17.296925,29.5299696 17.9752483,28.6095952 C18.6107275,27.747421 19.319324,26.7780631 19.6851671,26.2770134 C19.758541,26.1765972 19.8568645,26.0956455 19.9694267,26.0427949 C20.4532836,25.8159239 20.809506,25.3884783 20.9466972,24.8698332 L21.2317905,23.7921316 L21.558766,23.3332979 C21.8056973,22.9864818 21.8831759,22.551882 21.7713834,22.1406139 Z M16.6204616,30.3684254 C16.6549037,30.3385842 16.6947334,30.2977861 16.7449535,30.2401015 C16.7148727,30.2818664 16.673632,30.3272406 16.6204616,30.3684254 Z M20.5158182,22.5823678 L20.1205999,23.1369127 C20.0754468,23.2002045 20.042095,23.2712951 20.0222122,23.3466394 L19.7070382,24.5381633 C19.6677216,24.6867251 19.565678,24.8091839 19.4269476,24.874216 C19.1197266,25.0183306 18.8513733,25.2395943 18.6510062,25.5139664 C17.1410697,27.5819728 16.0522632,29.0558608 15.8059733,29.3661971 C15.6603159,29.4923296 15.5803359,29.699156 15.4805372,30.0619562 C15.5487158,29.5670939 15.642229,28.9353355 15.7341388,28.3151785 C16.0332783,26.2960267 16.2139551,25.039922 16.201384,24.6225309 C16.1800261,23.9110455 15.717976,23.6145664 15.469762,23.4554344 C15.2927411,23.34187 15.2479728,23.305648 15.214108,23.209679 C15.1035982,22.896829 14.9435739,22.656552 14.8024062,22.444505 C14.5714453,22.0977533 14.4710694,21.9301137 14.5114122,21.5893561 C14.5404667,21.3442452 14.6027447,21.2587818 14.7157558,21.103517 C14.909196,20.8377815 15.0826251,20.5534838 15.1057789,20.0623596 C15.129061,20.0211748 15.147212,19.9779275 15.1607452,19.9335846 C15.2503459,19.8370355 15.3352005,19.7495741 15.4138978,19.6731985 C15.4831668,19.606104 15.5795021,19.5807099 15.6712194,19.6050083 C16.4479946,19.8125437 17.1898145,20.1307432 17.8761552,20.5510346 L18.1240485,20.7027546 C18.1776037,21.1326493 18.4534612,21.5064708 18.8488719,21.6821669 L20.4665602,22.4009355 C20.5099175,22.4202066 20.5272347,22.4544951 20.5341616,22.4798891 C20.5408961,22.5053477 20.5433975,22.5436966 20.5158182,22.5823678 Z" id="Shape"></path>
                        <path d="M12.3315911,1.59864085 C12.202125,1.46903451 12.0224464,1.3943662 11.8392857,1.3943662 C11.6560554,1.3943662 11.4764464,1.46896479 11.3469107,1.59864085 C11.217375,1.7283169 11.1428571,1.90819014 11.1428571,2.0915493 C11.1428571,2.27490845 11.2173054,2.45478169 11.3469107,2.58445775 C11.4764464,2.7141338 11.6560554,2.78873239 11.8392857,2.78873239 C12.0224464,2.78873239 12.202125,2.7141338 12.3315911,2.58445775 C12.4611268,2.45478169 12.5357143,2.27490845 12.5357143,2.0915493 C12.5356446,1.90819014 12.4611268,1.7283169 12.3315911,1.59864085 Z" id="Path"></path>
                        <path d="M25.5714966,1.86114754 C25.1670129,1.18502561 24.5321825,0.715472807 23.7837294,0.538882117 C23.39621,0.447372455 23.0019809,0.440615827 22.6119295,0.518677834 L19.9533514,1.05054905 C19.9220815,1.05678089 19.8913179,1.06550547 19.861314,1.07652599 L18.7859824,1.47273987 C18.1022215,1.72470303 17.6428571,2.3993162 17.6428571,3.15133539 C17.6428571,3.9926995 18.1964111,4.70785243 18.9889838,4.89041257 C19.1666022,4.93134593 19.3186475,5.0576883 19.3958096,5.22837514 L19.8611874,6.25866242 C19.8718217,6.28214662 19.8704924,6.30963232 19.8577692,6.33206695 C19.612547,6.76403192 19.6109645,7.30167578 19.8535914,7.73534631 L20.7035768,9.25381632 C20.8785366,9.56639234 21.203706,9.76056338 21.5524228,9.76056338 C21.9548176,9.76056338 22.3226509,9.49921966 22.4674168,9.11094317 L22.4724174,9.09762671 C22.7965741,8.22818652 23.4136174,7.51060645 24.2097982,7.07693592 C24.9503388,6.67376862 25.4876881,5.95927167 25.684233,5.11653 L25.9192639,4.10861174 C26.0993509,3.33546989 25.975917,2.53733507 25.5714966,1.86114754 Z M24.6885322,3.80056201 L24.4535012,4.80848026 C24.3425372,5.28446171 24.0390795,5.687957 23.6208599,5.91564879 C22.7182093,6.40717703 21.9874168,7.17087273 21.5205832,8.09922021 L20.9486091,7.07719832 C20.9347465,7.05253335 20.9348098,7.02196453 20.948799,6.99729956 C21.1733222,6.60187286 21.1952239,6.11769163 21.0075409,5.70245423 L20.5422264,4.67236374 C20.2997894,4.13557265 19.8218151,3.7384404 19.2636403,3.60986768 C19.0546887,3.56178411 18.9087834,3.37325452 18.9087834,3.15146659 C18.9087834,2.95322845 19.0298753,2.77539139 19.2100889,2.70894029 L20.2402879,2.32938838 L22.8519611,1.80683213 C23.0685086,1.76353724 23.2875248,1.76734194 23.5026797,1.81804945 C23.9183041,1.91618454 24.2709455,2.17700348 24.4955321,2.55242269 C24.7200553,2.9279075 24.7886086,3.37115538 24.6885322,3.80056201 Z" id="Shape"></path>
                    </g>
                </g>
                <circle id="Oval" stroke="#000000" stroke-width="1.5" cx="18" cy="18" r="17.25"></circle>
            </g>
        </g>
    </g>
</svg>